<svg xmlns="http://www.w3.org/2000/svg" width="37.499" height="37.499" viewBox="0 0 37.499 37.499">
  <path id="close" d="M22.727-22.5,34.746-34.519,37.225-37a.938.938,0,0,0,0-1.325l-2.652-2.652a.938.938,0,0,0-1.325,0l-14.5,14.5-14.5-14.5a.938.938,0,0,0-1.325,0L.274-38.324A.938.938,0,0,0,.274-37l14.5,14.5L.274-8a.938.938,0,0,0,0,1.325L2.926-4.025a.938.938,0,0,0,1.325,0l14.5-14.5L30.769-6.5l2.479,2.479a.938.938,0,0,0,1.325,0l2.652-2.652a.938.938,0,0,0,0-1.325Z" transform="translate(0 41.25)" fill="#e2c88e"/>
</svg>
