<svg xmlns="http://www.w3.org/2000/svg" width="15.759" height="15.755" viewBox="0 0 15.759 15.755"><path d="M0-10.793A4.033,4.033,0,0,0-4.036-6.753,4.033,4.033,0,0,0,0-2.714,4.033,4.033,0,0,0,4.043-6.753,4.033,4.033,0,0,0,0-10.793ZM0-4.127A2.631,2.631,0,0,1-2.623-6.753,2.629,2.629,0,0,1,0-9.38,2.629,2.629,0,0,1,2.63-6.753,2.631,2.631,0,0,1,0-4.127ZM5.15-10.958a.942.942,0,0,0-.942-.942.942.942,0,0,0-.942.942.94.94,0,0,0,.942.942A.94.94,0,0,0,5.15-10.958ZM7.826-10a4.663,4.663,0,0,0-1.273-3.3,4.693,4.693,0,0,0-3.3-1.273c-1.3-.074-5.2-.074-6.5,0a4.686,4.686,0,0,0-3.3,1.269,4.678,4.678,0,0,0-1.273,3.3c-.074,1.3-.074,5.2,0,6.5A4.663,4.663,0,0,0-6.55-.2a4.7,4.7,0,0,0,3.3,1.273c1.3.074,5.2.074,6.5,0A4.663,4.663,0,0,0,6.553-.2a4.693,4.693,0,0,0,1.273-3.3C7.9-4.806,7.9-8.7,7.826-10ZM6.145-2.109a2.659,2.659,0,0,1-1.5,1.5A17.363,17.363,0,0,1,0-.3,17.5,17.5,0,0,1-4.641-.612a2.659,2.659,0,0,1-1.5-1.5,17.363,17.363,0,0,1-.316-4.644A17.5,17.5,0,0,1-6.138-11.4a2.659,2.659,0,0,1,1.5-1.5A17.363,17.363,0,0,1,0-13.212a17.5,17.5,0,0,1,4.644.316,2.659,2.659,0,0,1,1.5,1.5,17.363,17.363,0,0,1,.316,4.644C6.462-5.607,6.557-3.143,6.145-2.109Z" transform="translate(7.878 14.631)" fill="#fff"/></svg>