<svg xmlns="http://www.w3.org/2000/svg" width="175" height="136.234" viewBox="0 0 175 136.234"><path d="M62.647-147.6C18.9-140.954-17.1-107.173-17.1-62.315c0,31.566,20.491,50.949,42.642,50.949C42.71-11.366,54.894-23,54.894-39.61c0-11.076-5.538-23.813-23.813-28.244C19.451-71.176,4.5-75.053,5.606-90.559c.554-25.475,33.782-48.18,57.595-53.718Zm94.7,0c-43.75,6.646-80.3,40.427-80.3,85.285,0,31.566,21.044,50.949,43.2,50.949,17.168,0,29.351-11.63,29.351-28.244,0-11.076-5.538-23.813-23.813-28.244-11.63-3.323-26.582-7.2-25.475-22.706.554-25.475,33.782-48.18,57.595-53.718Z" transform="translate(17.1 147.6)" fill="#e2c88e" opacity="0.25"/></svg>