<svg xmlns="http://www.w3.org/2000/svg" width="120.757" height="154.058" viewBox="0 0 120.757 154.058"><g transform="translate(-1086 -1956.558)"><g transform="translate(1051.82 1944.903)"><g transform="translate(57.185 11.655)"><path d="M237.405,13.567s4.062-1.611,4.413,3.432c-.07.63-.63,8.546-8.2,16.18-.07,0,2.241,6.374,2.241,6.374s8.965-14.289,9.526-22.134C245.251,14.688,240.978,10,237.405,13.567Z" transform="translate(-202.453 -12.108)" fill="#fff"/><path d="M188.813,171.383l5.717-3.984-7.819,26.678s-.28,1.821.56,1.821c0,0-.771.981-1.681-.91-.07,0-1.611-3.572-1.611-3.572s-.63-.771.14-3.152C183.98,188.194,188.813,171.383,188.813,171.383Z" transform="translate(-166.119 -125.095)" fill="#fff"/><path d="M210.785,176.651v7.074L195.3,202.287c.343-.343-1.428,1.686-1.191-.84-.07-.07,2.031-7.425,2.031-7.425Z" transform="translate(-173.661 -131.834)" fill="#fff"/><path d="M255.547,176.651v7.074l16.32,19.192s1.892-.21-1.4-8.125Z" transform="translate(-218.423 -131.834)" fill="#fff"/><path d="M289.071,167.625l5.814,20.733s2.661,6.934,1.4,7.985c0,0,.42.561,1.541-1.821s1.4-3.012,1.4-3.012.7-1.12-.21-4.132-4.343-15.69-4.343-15.69Z" transform="translate(-242.842 -125.26)" fill="#fff"/><path d="M289.071,167.249l5.6,4.063h22.765s.84-.56-1.471-1.751c-.07-.07-2.959-2.452-5.341-2.452Z" transform="translate(-242.842 -124.884)" fill="#fff"/><path d="M295,130.953l19.192,8.336s7.21,2.793,7.7,4.124c.07-.07-.766-5.805-4.759-7.416-.28-.28-15.55-6.794-15.55-6.794Z" transform="translate(-247.161 -97.273)" fill="#fff"/><path d="M295,80.023l6.584-1.751L314.4,59.991s.63-1.331-1.471-.35c-.981.42-5.253,2.452-6.374,4.273C306.489,64.054,295,79.533,295,80.023Z" transform="translate(-247.161 -46.344)" fill="#fff"/><path d="M271.793,70.079,290.075,59.5s6.444-4.693,7.565-3.782c-.07-.07,1.821-.7-5.674-1.611-1.051-.07-1.331,0-3.222,1.121s-14.779,8.475-14.779,8.475Z" transform="translate(-230.257 -42.564)" fill="#fff"/><path d="M242.859,39.171,245.03,32.8s-7.285-7.7-9.246-16.25c-.14-.84-.63-5.814,4.973-4.343.07-.07-7.7-2.942-8.685,5.183C232.072,21.449,231.582,22.64,242.859,39.171Z" transform="translate(-201.322 -11.655)" fill="#fff"/><path d="M147.286,167l-5.7,4.071-22.563-.018s-.84-.56,1.471-1.751c.07-.07,3.344-2.452,5.726-2.452Z" transform="translate(-118.875 -124.696)" fill="#fff"/><path d="M145.816,130.694l-19.192,8.335s-7.206,2.745-7.7,4.076c-.07-.07.762-5.757,4.755-7.368.28-.28,15.55-6.794,15.55-6.794Z" transform="translate(-118.91 -97.085)" fill="#fff"/><path d="M165.665,79.765l-6.584-1.751L146.262,59.733s-.63-1.331,1.471-.35c.981.42,5.253,2.452,6.374,4.273C154.177,63.795,165.665,79.275,165.665,79.765Z" transform="translate(-138.758 -46.156)" fill="#fff"/><path d="M171.593,69.821,153.11,59.245s-6.444-4.693-7.565-3.782c.07-.07-1.821-.7,5.674-1.611,1.05-.07,1.331,0,3.222,1.121S169.4,63.509,169.4,63.509Z" transform="translate(-138.182 -42.376)" fill="#fff"/></g><g transform="translate(41.015 90.638)"><path d="M62.2,303.215H64.9l2.859,10.8H65.487l-.5-2.284H62.113l-.5,2.284H59.345Zm.287,6.732H64.61l-1.044-4.856h-.03Z" transform="translate(-59.345 -303.003)" fill="#fff"/><path d="M91.762,312.45h2v.832h.03a2.3,2.3,0,0,1,2.058-1.044,1.761,1.761,0,0,1,1.876,1.3h.03a2.024,2.024,0,0,1,2.058-1.3c1.392,0,2.027.862,2.027,2.436v5.915H99.75V314.9c0-.681-.227-1.059-.817-1.059-.665,0-1.089.439-1.089,1.392v5.355H95.756V314.9c0-.681-.227-1.059-.817-1.059-.666,0-1.089.439-1.089,1.392v5.355H91.762Z" transform="translate(-82.957 -309.576)" fill="#fff"/><path d="M133.843,316.837v.651c0,.968.257,1.891,1.029,1.891.711,0,.983-.5,1.1-1.528h1.876c-.076,1.891-.953,2.95-2.95,2.95-3.026,0-3.147-2.329-3.147-4.357,0-2.178.423-4.206,3.237-4.206,2.436,0,2.98,1.634,2.98,4.13v.469Zm2.133-1.24c-.045-1.241-.2-1.936-1.059-1.936-.832,0-1.074.847-1.074,1.619v.318Z" transform="translate(-112.087 -309.576)" fill="#fff"/><path d="M157.544,312.45h2v1.089h.03a2.105,2.105,0,0,1,1.876-1.3,3.167,3.167,0,0,1,.378.03v2c-.227-.015-.423-.03-.651-.03a1.409,1.409,0,0,0-1.543,1.467v4.886h-2.088Z" transform="translate(-130.871 -309.576)" fill="#fff"/><path d="M175.256,302.77h2.088v1.785h-2.088Zm0,2.784h2.088v8.139h-2.088Z" transform="translate(-143.772 -302.679)" fill="#fff"/><path d="M190.339,315.384c0-.786-.151-1.634-.938-1.634-1.029,0-1.2.908-1.2,2.784,0,2.012.2,2.844,1.119,2.844.711,0,1.014-.575,1.014-1.906h2c0,2.133-.877,3.328-3.1,3.328-2.088,0-3.116-1.014-3.116-4.281,0-3.343,1.361-4.281,3.3-4.281s2.92,1.21,2.92,3.146Z" transform="translate(-151.683 -309.576)" fill="#fff"/><path d="M211.162,314.946v-.2c0-1.876,1.286-2.511,2.859-2.511,2.481,0,2.95,1.029,2.95,2.5v4.281a3.52,3.52,0,0,0,.257,1.573h-2a3.226,3.226,0,0,1-.257-.847h-.03a2,2,0,0,1-2.072,1.059c-1.452,0-1.967-1.241-1.967-2.329,0-1.543.62-2.149,2.057-2.542l1.18-.318c.62-.167.832-.409.832-.953,0-.62-.258-1-.968-1-.651,0-.968.409-.968,1.059v.227Zm3.812,1.574a2.334,2.334,0,0,1-.893.408c-.847.182-1.18.59-1.18,1.316,0,.62.227,1.134.787,1.134a1.223,1.223,0,0,0,1.286-1.255Z" transform="translate(-169.738 -309.576)" fill="#fff"/><path d="M237.584,312.45h2v.953h.03a2.218,2.218,0,0,1,2.073-1.165c1.316,0,2.072.7,2.072,2.315v6.036h-2.088v-5.613c0-.832-.272-1.134-.893-1.134-.741,0-1.1.454-1.1,1.346v5.4h-2.088Z" transform="translate(-189.17 -309.576)" fill="#fff"/><path d="M276.8,303.215h3.646c1.785,0,3.071.666,3.071,2.738a2.239,2.239,0,0,1-1.634,2.36v.03a2.264,2.264,0,0,1,1.967,2.511c0,1.694-.832,3.162-3.374,3.162H276.8Zm2.178,4.433h.62c1.21,0,1.74-.393,1.74-1.422s-.484-1.407-1.573-1.407h-.787Zm0,4.765h.847c1.044,0,1.755-.378,1.755-1.634s-.711-1.619-1.664-1.619h-.938Z" transform="translate(-217.732 -303.003)" fill="#fff"/><path d="M308.635,312.235c2.5-.045,3.207,1.437,3.207,4.281,0,2.783-.832,4.281-3.207,4.281-2.5.046-3.207-1.437-3.207-4.281C305.428,313.733,306.26,312.235,308.635,312.235Zm0,7.14c.847,0,1.12-.817,1.12-2.859s-.272-2.859-1.12-2.859c-1.029,0-1.119,1.195-1.119,2.859S307.606,319.375,308.635,319.375Z" transform="translate(-238.586 -309.573)" fill="#fff"/><path d="M331.307,314.946v-.2c0-1.876,1.286-2.511,2.859-2.511,2.481,0,2.95,1.029,2.95,2.5v4.281a3.52,3.52,0,0,0,.257,1.573h-2a3.237,3.237,0,0,1-.258-.847h-.03a2,2,0,0,1-2.073,1.059c-1.452,0-1.967-1.241-1.967-2.329,0-1.543.62-2.149,2.057-2.542l1.18-.318c.62-.167.832-.409.832-.953,0-.62-.257-1-.968-1-.651,0-.968.409-.968,1.059v.227Zm3.812,1.574a2.328,2.328,0,0,1-.893.408c-.847.182-1.18.59-1.18,1.316,0,.62.227,1.134.787,1.134a1.223,1.223,0,0,0,1.286-1.255Z" transform="translate(-257.248 -309.576)" fill="#fff"/><path d="M357.729,312.45h2v1.089h.03a2.105,2.105,0,0,1,1.876-1.3,3.158,3.158,0,0,1,.378.03v2c-.227-.015-.423-.03-.65-.03a1.409,1.409,0,0,0-1.543,1.467v4.886h-2.088Z" transform="translate(-276.681 -309.576)" fill="#fff"/><path d="M378.81,313.154h-.03a1.948,1.948,0,0,1-1.846,1.074c-1.709,0-2.5-1.255-2.5-4.281s.787-4.281,2.5-4.281a1.953,1.953,0,0,1,1.755.968h.03v-3.419h2.088v10.8h-2Zm-1.195-.53c.922,0,1.1-.908,1.1-2.677s-.182-2.678-1.1-2.678-1.089.908-1.089,2.678S376.707,312.625,377.615,312.625Z" transform="translate(-288.851 -303.003)" fill="#fff"/><path d="M416.357,312.235c2.5-.045,3.207,1.437,3.207,4.281,0,2.783-.832,4.281-3.207,4.281-2.5.046-3.207-1.437-3.207-4.281C413.15,313.733,413.982,312.235,416.357,312.235Zm0,7.14c.847,0,1.12-.817,1.12-2.859s-.272-2.859-1.12-2.859c-1.029,0-1.119,1.195-1.119,2.859S415.328,319.375,416.357,319.375Z" transform="translate(-317.048 -309.573)" fill="#fff"/><path d="M438.606,306.732h-1.059V305.31h1.059v-.923c0-1.467.832-1.951,2.179-1.951.363,0,.741.015,1.119.045v1.483a.991.991,0,0,0-.212-.015h-.2c-.59,0-.8.182-.8.651v.711h1.21v1.422h-1.21v6.717h-2.088Z" transform="translate(-334.818 -302.436)" fill="#fff"/><path d="M99.087,370.057H102.9c2.224,0,2.965,1.619,2.965,3.237,0,2.239-1.377,3.252-3.434,3.252h-1.165v4.312H99.087Zm2.178,4.886h.968c.862,0,1.452-.514,1.452-1.619,0-1.074-.424-1.664-1.513-1.664h-.908Z" transform="translate(-88.292 -351.69)" fill="#fff"/><path d="M126.937,370.057h2.088v10.8h-2.088Z" transform="translate(-108.577 -351.69)" fill="#fff"/><path d="M138.167,381.787v-.2c0-1.876,1.286-2.511,2.859-2.511,2.481,0,2.95,1.029,2.95,2.5v4.281a3.52,3.52,0,0,0,.257,1.573h-2a3.227,3.227,0,0,1-.257-.847h-.03a2,2,0,0,1-2.072,1.059c-1.452,0-1.967-1.241-1.967-2.33,0-1.543.62-2.148,2.057-2.542l1.18-.318c.62-.167.832-.409.832-.953,0-.62-.257-1-.968-1-.651,0-.968.409-.968,1.059v.227Zm3.812,1.574a2.332,2.332,0,0,1-.893.408c-.847.182-1.18.59-1.18,1.316,0,.62.227,1.135.787,1.135a1.223,1.223,0,0,0,1.286-1.256Z" transform="translate(-116.57 -358.261)" fill="#fff"/><path d="M165.185,384.767v.272a1.044,1.044,0,0,0,1.089,1.18c.651,0,1.059-.318,1.059-.968,0-.53-.348-.756-.756-.923l-1.467-.53a2.253,2.253,0,0,1-1.74-2.269c0-1.332.862-2.451,3-2.451,1.891,0,2.784.847,2.784,2.315v.332h-1.876c0-.832-.242-1.225-.923-1.225a.879.879,0,0,0-.983.878c0,.408.2.726.908.953l1.256.423a2.181,2.181,0,0,1,1.8,2.33c0,1.71-1.271,2.557-3.026,2.557-2.36,0-3-1.014-3-2.587v-.287Z" transform="translate(-135.07 -358.261)" fill="#fff"/><path d="M187.038,371.281h2.088v2.33h1.21v1.422h-1.21v4.4c0,.651.136.893.741.893a4.366,4.366,0,0,0,.469-.03v1.452a13.427,13.427,0,0,1-1.362.091c-1.634,0-1.936-.514-1.936-2.148v-4.659h-1.059v-1.422h1.059Z" transform="translate(-151.582 -352.581)" fill="#fff"/><path d="M203.857,369.61h2.088V371.4h-2.088Zm0,2.784h2.088v8.139h-2.088Z" transform="translate(-164.604 -351.364)" fill="#fff"/><path d="M218.939,382.225c0-.786-.151-1.634-.938-1.634-1.029,0-1.2.908-1.2,2.784,0,2.012.2,2.844,1.12,2.844.711,0,1.013-.575,1.013-1.906h2c0,2.133-.877,3.328-3.1,3.328-2.087,0-3.116-1.014-3.116-4.281,0-3.343,1.361-4.281,3.3-4.281s2.92,1.21,2.92,3.146Z" transform="translate(-172.516 -358.261)" fill="#fff"/><path d="M253.6,376.916v.318c0,1.014.287,1.664,1.437,1.664a1.244,1.244,0,0,0,1.3-1.331c0-.968-.484-1.361-1.936-1.845-1.936-.651-2.829-1.483-2.829-3.268,0-2.118,1.271-3.177,3.343-3.177,1.936,0,3.343.832,3.343,2.9v.3h-2.088c0-1.029-.333-1.6-1.18-1.6a1.109,1.109,0,0,0-1.241,1.255c0,.666.2,1.089,1.12,1.467l1.679.726c1.634.726,2.057,1.528,2.057,2.859,0,2.284-1.392,3.313-3.752,3.313-2.466,0-3.434-1.15-3.434-3.146v-.439Z" transform="translate(-199.251 -351.121)" fill="#fff"/><path d="M284.731,387.044h-.03a2.217,2.217,0,0,1-2.072,1.165c-1.316,0-2.073-.7-2.073-2.315v-6.036h2.088v5.613c0,.832.272,1.135.893,1.135.741,0,1.1-.454,1.1-1.346v-5.4h2.087V388h-2Z" transform="translate(-220.47 -358.828)" fill="#fff"/><path d="M307.292,379.291h2v1.089h.03a2.1,2.1,0,0,1,1.876-1.3,3.224,3.224,0,0,1,.378.03v2c-.227-.015-.424-.03-.651-.03a1.409,1.409,0,0,0-1.543,1.467v4.886h-2.088Z" transform="translate(-239.944 -358.261)" fill="#fff"/><path d="M330.376,379.291v7.73c0,2.163-.953,3.192-3.389,3.192-1.77,0-2.768-.787-2.768-2.178h2a.729.729,0,0,0,.318.62,1.234,1.234,0,0,0,.7.227c.847,0,1.15-.62,1.15-1.467v-1.074h-.03a2.2,2.2,0,0,1-1.74,1c-1.649,0-2.5-1.15-2.5-4.115,0-1.906.3-4.145,2.557-4.145a1.817,1.817,0,0,1,1.679,1.119h.03v-.908Zm-3.131,6.445c.892,0,1.134-.953,1.134-2.329,0-1.982-.257-2.723-1.089-2.723-.923,0-1.089.742-1.089,2.935C326.2,384.737,326.352,385.735,327.245,385.735Z" transform="translate(-252.196 -358.261)" fill="#fff"/><path d="M352.436,383.678v.651c0,.968.257,1.891,1.029,1.891.711,0,.983-.5,1.1-1.528h1.876c-.076,1.891-.953,2.95-2.95,2.95-3.026,0-3.146-2.33-3.146-4.357,0-2.178.423-4.206,3.237-4.206,2.435,0,2.98,1.634,2.98,4.13v.469Zm2.133-1.241c-.046-1.241-.2-1.936-1.059-1.936-.832,0-1.074.847-1.074,1.619v.318Z" transform="translate(-271.305 -358.261)" fill="#fff"/><path d="M376.138,379.291h2v1.089h.03a2.1,2.1,0,0,1,1.876-1.3,3.215,3.215,0,0,1,.378.03v2c-.227-.015-.423-.03-.65-.03a1.409,1.409,0,0,0-1.543,1.467v4.886h-2.088Z" transform="translate(-290.089 -358.261)" fill="#fff"/><path d="M392.91,389.1a3.322,3.322,0,0,0,.545.045c.771,0,1.059-.423,1.119-1.15l-2.284-8.139h2.179l1.21,5.628h.03l1.059-5.628h2.088l-1.967,7.594c-.726,2.814-1.2,3.207-3.132,3.207h-.847Z" transform="translate(-301.854 -358.828)" fill="#fff"/></g><g transform="translate(60.036 128.772)"><path d="M132.564,443.5h1.21l3.192,10.8h-1.029l-.877-3.146h-3.782L130.4,454.3h-1.029Zm2.284,6.838-1.664-6.082h-.03l-1.664,6.082Z" transform="translate(-129.372 -443.316)" fill="#fff"/><path d="M159.283,443.5h2.98c2.1,0,2.9,1.089,2.9,2.708a2.3,2.3,0,0,1-1.664,2.345v.03a2.474,2.474,0,0,1,2.012,2.693c0,1.891-1.21,3.026-3.268,3.026h-2.965Zm.968,4.75h1.528c1.679,0,2.42-.7,2.42-1.967,0-1.452-.741-1.967-2.254-1.967h-1.694Zm0,5.234h1.8c1.664,0,2.5-.741,2.5-2.209s-.832-2.209-2.5-2.209h-1.8Z" transform="translate(-151.158 -443.316)" fill="#fff"/><path d="M186.354,443.5h1.679l2.6,9.591h.03l2.6-9.591h1.588v10.8h-.968v-9.894h-.03l-2.8,9.894h-.907l-2.8-9.894h-.03V454.3h-.968Z" transform="translate(-170.876 -443.316)" fill="#fff"/><path d="M226.715,445.779c0-1.331-.605-2.133-1.936-2.133a1.88,1.88,0,0,0-2.042,1.936c0,3.207,5.234,1.467,5.234,5.249a2.933,2.933,0,0,1-3.267,3.162c-2.042,0-3.147-1.074-3.147-3.207v-.318h.968v.409a2.025,2.025,0,0,0,2.148,2.3,2.052,2.052,0,0,0,2.33-2.194c0-3.222-5.234-1.377-5.234-5.3a2.726,2.726,0,0,1,2.98-2.859c2.012,0,2.935,1.014,2.935,2.95Z" transform="translate(-196.517 -442.829)" fill="#fff"/><path d="M261.325,443.5H263l2.6,9.591h.03l2.6-9.591h1.588v10.8h-.968v-9.894h-.03l-2.8,9.894h-.908l-2.8-9.894h-.03V454.3h-.968Z" transform="translate(-225.483 -443.316)" fill="#fff"/><path d="M301.2,442.829c2.193,0,3.449,1.71,3.449,5.582s-1.256,5.582-3.449,5.582c-2.224,0-3.449-1.709-3.449-5.582S298.978,442.829,301.2,442.829Zm0,10.348c1.528,0,2.481-1.256,2.481-4.765s-.953-4.765-2.481-4.765-2.481,1.256-2.481,4.765S299.674,453.177,301.2,453.177Z" transform="translate(-252.017 -442.829)" fill="#fff"/><path d="M334.264,450.151c-.136,2.481-1.255,3.843-3.207,3.843-2.224,0-3.449-1.709-3.449-5.582s1.225-5.582,3.449-5.582c2.193,0,3.1,1.558,3.1,3.328h-.968c0-1.467-.741-2.511-2.133-2.511-1.528,0-2.481,1.256-2.481,4.765s.953,4.765,2.481,4.765c1.377,0,2.133-1.15,2.239-3.026Z" transform="translate(-273.762 -442.829)" fill="#fff"/><path d="M368.119,443.634a2.481,2.481,0,1,1-2.48,2.481A2.479,2.479,0,0,1,368.119,443.634Zm0,4.625a2.144,2.144,0,1,0-2.144-2.144A2.146,2.146,0,0,0,368.119,448.259Zm.02-1.983h-.619v1.311h-.336v-2.951h1.136c.672,0,.961.289.961.82a.8.8,0,0,1-.74.82l.874,1.311h-.4Zm-.619-.3h.726c.4,0,.7-.114.7-.531s-.35-.517-.7-.517h-.726Z" transform="translate(-301.463 -443.415)" fill="#fff"/></g><line x2="120.757" transform="translate(34.18 149.842)" fill="none" stroke="#fff" stroke-miterlimit="10" stroke-width="1"/><g transform="translate(38.935 154.549)"><g transform="translate(0)"><path d="M58.276,545.049c-.651,2.481-2.057,3.842-4.009,3.842-2.224,0-3.086-1.709-2.284-5.582s2.375-5.582,4.6-5.582c2.193,0,2.783,1.558,2.42,3.328h-.968c.3-1.467-.227-2.511-1.619-2.511-1.543,0-2.738,1.256-3.464,4.765s-.061,4.765,1.483,4.765c1.377,0,2.375-1.15,2.874-3.026Z" transform="translate(-51.688 -537.727)" fill="#fff"/><path d="M85.333,553.471a3.463,3.463,0,0,1-3.177,2.844c-1.694,0-2.466-1.18-1.815-4.205.59-2.8,1.861-4.191,3.631-4.191,1.8,0,2.345,1.195,1.785,3.9l-.076.333H81.294l-.076.378c-.484,2.315.181,3.026,1.074,3.026.968,0,1.694-.681,2.133-2.088Zm-.454-2.073c.378-2-.045-2.723-1.15-2.723-1.135,0-1.831.726-2.269,2.723Z" transform="translate(-72.391 -545.151)" fill="#fff"/><path d="M105.624,548.1h.907l-.257,1.256h.03a2.671,2.671,0,0,1,2.315-1.437,1.156,1.156,0,0,1,.318.045l-.2.908a2,2,0,0,0-.424-.045,2.552,2.552,0,0,0-2.405,2.284l-1.044,5.022h-.908Z" transform="translate(-89.762 -545.151)" fill="#fff"/><path d="M123.864,543.38h-1.1l.151-.757h1.1l.454-2.224h.907l-.454,2.224h1.422l-.151.757h-1.422l-1.21,5.764c-.121.65.106.847.7.847a2.131,2.131,0,0,0,.575-.091l-.151.756a1.68,1.68,0,0,1-.665.091c-1.226,0-1.619-.333-1.392-1.407Z" transform="translate(-103.311 -539.674)" fill="#fff"/><path d="M136.983,541.164h.908l-1.664,8.033h-.908Zm.575-2.768h.908l-.318,1.543h-.907Z" transform="translate(-112.603 -538.214)" fill="#fff"/><path d="M149.2,541.595h-1.1l.151-.756h1.1l.2-.953c.242-1.1.62-1.936,2.163-1.936a1.863,1.863,0,0,1,.56.046l-.151.756a2.06,2.06,0,0,0-.439-.045c-.666,0-1.029.258-1.226,1.18l-.2.953h1.422l-.151.756h-1.422l-1.513,7.277h-.908Zm3.54-.756h.908l-1.664,8.033h-.908Zm.575-2.768h.908l-.318,1.543h-.908Z" transform="translate(-121.61 -537.889)" fill="#fff"/><path d="M177.151,553.471c-.484,1.709-1.649,2.844-3.147,2.844-1.694,0-2.466-1.18-1.815-4.205.59-2.8,1.861-4.191,3.631-4.191,1.513,0,2.209.923,1.952,2.572h-.907c.166-1.271-.227-1.815-1.2-1.815-.983,0-1.906.62-2.511,3.449-.65,3.026.151,3.434.983,3.434.923,0,1.664-.681,2.1-2.088Z" transform="translate(-139.291 -545.151)" fill="#fff"/><path d="M195.863,550.491a2.845,2.845,0,0,1,3.01-2.572c1.649,0,2.118.862,1.83,2.133l-.983,4.75c-.091.439.015.666.333.666h.257l-.136.665a1.489,1.489,0,0,1-.454.091c-.711,0-1.119-.166-.953-1l.06-.272h-.03a2.506,2.506,0,0,1-2.36,1.361c-1.407,0-1.861-.877-1.573-2.269a2.742,2.742,0,0,1,2.088-2.224l1.8-.484c.681-.166.847-.348,1.044-1.271.212-1.029-.287-1.392-1.1-1.392-1.089,0-1.679.651-1.921,1.815Zm3.616,1.1h-.03c-.167.287-.7.423-1.074.529l-.8.2a2.007,2.007,0,0,0-1.725,1.664c-.2.953.151,1.573.938,1.573a2.5,2.5,0,0,0,2.345-2.269Z" transform="translate(-155.915 -545.151)" fill="#fff"/><path d="M223.455,543.38h-1.1l.151-.757h1.1l.454-2.224h.908l-.454,2.224h1.422l-.151.757h-1.422l-1.21,5.764c-.121.65.106.847.7.847a2.131,2.131,0,0,0,.575-.091l-.151.756a1.682,1.682,0,0,1-.666.091c-1.225,0-1.619-.333-1.392-1.407Z" transform="translate(-175.851 -539.674)" fill="#fff"/><path d="M236.575,541.164h.908l-1.664,8.033h-.908Zm.575-2.768h.908l-.318,1.543h-.908Z" transform="translate(-185.143 -538.214)" fill="#fff"/><path d="M250.639,547.919c1.77,0,2.5,1.392,1.906,4.191-.59,2.829-1.876,4.205-3.646,4.205s-2.481-1.376-1.891-4.205C247.6,549.311,248.869,547.919,250.639,547.919Zm-2.874,5.824c0,1.331.514,1.816,1.286,1.816,1.013,0,1.967-.878,2.526-3.449a7.778,7.778,0,0,0,.2-1.6c0-1.346-.514-1.83-1.286-1.83-1.014,0-1.982.877-2.511,3.434A8.326,8.326,0,0,0,247.764,553.743Z" transform="translate(-193.806 -545.151)" fill="#fff"/><path d="M272.557,548.1h.817l-.227,1.12h.031a2.819,2.819,0,0,1,2.314-1.3c1.226,0,1.936.635,1.619,2.148l-1.256,6.066h-.908l1.2-5.809c.242-1.1-.106-1.649-1.029-1.649a2.314,2.314,0,0,0-2.194,2.057l-1.119,5.4h-.907Z" transform="translate(-211.352 -545.151)" fill="#fff"/><path d="M313.68,538.4h1.679l.605,9.591h.03l4.6-9.591h1.588l-2.239,10.8h-.968l2.042-9.894h-.03l-4.841,9.894h-.908l-.757-9.894h-.03l-2.042,9.894h-.968Z" transform="translate(-240.886 -538.214)" fill="#fff"/><path d="M351.321,550.491a2.845,2.845,0,0,1,3.01-2.572c1.649,0,2.118.862,1.83,2.133l-.983,4.75c-.091.439.015.666.333.666h.257l-.136.665a1.493,1.493,0,0,1-.454.091c-.711,0-1.119-.166-.953-1l.061-.272h-.03a2.5,2.5,0,0,1-2.36,1.361c-1.407,0-1.861-.877-1.573-2.269a2.741,2.741,0,0,1,2.088-2.224l1.8-.484c.681-.166.847-.348,1.044-1.271.212-1.029-.287-1.392-1.1-1.392-1.089,0-1.679.651-1.921,1.815Zm3.615,1.1h-.03c-.166.287-.7.423-1.074.529l-.8.2a2.007,2.007,0,0,0-1.725,1.664c-.2.953.151,1.573.938,1.573a2.5,2.5,0,0,0,2.345-2.269Z" transform="translate(-269.146 -545.151)" fill="#fff"/><path d="M378.912,543.38h-1.1l.152-.757h1.1l.454-2.224h.908l-.454,2.224h1.422l-.151.757H379.82l-1.21,5.764c-.121.65.106.847.7.847a2.133,2.133,0,0,0,.575-.091l-.152.756a1.679,1.679,0,0,1-.665.091c-1.226,0-1.619-.333-1.392-1.407Z" transform="translate(-289.082 -539.674)" fill="#fff"/><path d="M393.45,543.38h-1.1l.152-.757h1.1l.454-2.224h.908l-.454,2.224h1.422l-.151.757h-1.422l-1.21,5.764c-.121.65.106.847.7.847a2.133,2.133,0,0,0,.575-.091l-.152.756a1.679,1.679,0,0,1-.665.091c-1.226,0-1.619-.333-1.392-1.407Z" transform="translate(-299.671 -539.674)" fill="#fff"/><path d="M410.9,553.471a3.462,3.462,0,0,1-3.177,2.844c-1.694,0-2.466-1.18-1.815-4.205.59-2.8,1.861-4.191,3.631-4.191,1.8,0,2.345,1.195,1.785,3.9l-.076.333h-4.387l-.076.378c-.484,2.315.181,3.026,1.074,3.026.968,0,1.694-.681,2.133-2.088Zm-.454-2.073c.378-2-.045-2.723-1.15-2.723-1.135,0-1.83.726-2.269,2.723Z" transform="translate(-309.524 -545.151)" fill="#fff"/><path d="M431.189,548.1h.908l-.257,1.256h.03a2.671,2.671,0,0,1,2.314-1.437,1.156,1.156,0,0,1,.318.045l-.2.908a2.006,2.006,0,0,0-.424-.045,2.552,2.552,0,0,0-2.405,2.284l-1.044,5.022h-.908Z" transform="translate(-326.895 -545.151)" fill="#fff"/><path d="M448.1,552.14a1.558,1.558,0,0,1-1.135-1.906,2.7,2.7,0,0,1,2.859-2.315c1.513,0,2.057.772,1.755,2.239l-.045.227h-.908l.045-.227c.227-1.044-.166-1.482-1.013-1.482a1.6,1.6,0,0,0-1.755,1.361c-.106.56-.015,1,.817,1.346l1.21.5a1.622,1.622,0,0,1,1.074,2.042,2.852,2.852,0,0,1-2.98,2.39c-1.649,0-2.33-.681-1.951-2.5l.06-.257h.908l-.045.212c-.242,1.2.151,1.785,1.165,1.785a1.793,1.793,0,0,0,1.891-1.437,1.138,1.138,0,0,0-.771-1.482Z" transform="translate(-338.875 -545.151)" fill="#fff"/></g></g></g></g></svg>