<svg xmlns="http://www.w3.org/2000/svg" width="135.572" height="122.938" viewBox="0 0 135.572 122.938"><g transform="translate(-1259 -1971)"><g transform="translate(1203.751 1888)"><g transform="translate(83.916 97.386)"><path d="M268.025,222.293a.311.311,0,0,0-.439-.02l-3.931,3.02c-1.123.557-2.137,1.223-3.241,1.8-1.163.518-2.261,1.1-3.511,1.53a35.243,35.243,0,0,1-7.922,2.16,40.217,40.217,0,0,1-9.452.45,49.2,49.2,0,0,1-8.462-1.62,41.668,41.668,0,0,1-13.143-7.022,67.054,67.054,0,0,1-5.131-4.951c-.277-.563-.791-.89-1.08-1.441a8.96,8.96,0,0,1-1.08-1.44,6.166,6.166,0,0,1-.99-1.53c-.473-.4-.635-1.105-1.08-1.53-.542-1.138-1.106-2.256-1.71-3.331-.174-.666-.5-1.179-.72-1.8a15.468,15.468,0,0,0-.72-1.8,58.151,58.151,0,0,1-1.8-8.282,39.082,39.082,0,0,1,1.98-17.644,39.639,39.639,0,0,1,18.724-21.7l3.148-1.4a.332.332,0,0,0-.22-.627c-1.2.422-3.288,1.3-3.288,1.3a32.437,32.437,0,0,0-5.041,2.431c-1.565.956-3.056,1.985-4.5,3.061a45.391,45.391,0,0,0-7.472,7.652,39.97,39.97,0,0,0-7.922,22.235c-.02.07,0,.178-.09.18v3.781a40.743,40.743,0,0,0,38.709,38.619h3.6a40.928,40.928,0,0,0,12.963-2.791,37.253,37.253,0,0,0,10.082-5.761l3.72-3.1A.311.311,0,0,0,268.025,222.293Z" transform="translate(-198.929 -155.104)" fill="#fff"/><path d="M361.559,190.344a34.721,34.721,0,0,0-12.333-17.374c-5.727-4.175-12.6-7.2-22.865-6.841-.115,0-.125.115-.27.09a33.306,33.306,0,0,0-9,1.8,35.437,35.437,0,0,0-6.392,3.061c-.294.181-.518.338-.81.54l-3.479,2.443a.352.352,0,1,0,.446.545l3.483-2.268a37.3,37.3,0,0,1,12.423-3.691,35.532,35.532,0,0,1,14.223,1.71,34.02,34.02,0,0,1,17.824,14.4,35.128,35.128,0,0,1,4.411,11.7,34,34,0,0,1-.72,14.493,33.332,33.332,0,0,1-13.323,18.995l-3.926,2.266a.322.322,0,0,0,.264.588v0l4.111-2.138a30.877,30.877,0,0,0,4.951-3.331c1.233-.975,2.217-2.131,3.331-3.151a34.707,34.707,0,0,0,5.941-8.912,34.212,34.212,0,0,0,3.151-11.7A36.5,36.5,0,0,0,361.559,190.344Z" transform="translate(-284.861 -163.906)" fill="#fff" fill-rule="evenodd"/><path d="M559.535,532.076a1.792,1.792,0,1,1,1.789,1.692A1.7,1.7,0,0,1,559.535,532.076Zm3.248-.019a1.46,1.46,0,0,0-2.917,0,1.459,1.459,0,0,0,2.917,0Zm-2.12-.272c0-.292-.019-.428-.019-.525,0-.117-.058-.136-.214-.136-.02,0-.058-.019-.058-.039,0-.039.039-.058.1-.058h.1c.039,0,.195.019.253.019.175,0,.253-.019.408-.019.33,0,.817.058.817.525,0,.194-.058.35-.35.583l.331.408c.253.311.331.331.37.331s.058.019.058.039c0,.039-.019.058-.136.058-.253,0-.389.02-.681-.369l-.272-.37h-.35v.175c0,.389.02.408.039.428a.572.572,0,0,0,.195.039c.039,0,.058,0,.058.039s-.039.058-.078.058h-.078c-.039,0-.214-.02-.311-.02-.058,0-.253.02-.292.02h-.1c-.039,0-.078,0-.078-.039s.039-.058.078-.058c.175,0,.175,0,.194-.117,0-.1.019-.233.019-.545Zm.35.233a.592.592,0,0,0,.292.058.373.373,0,0,0,.194-.058.366.366,0,0,0,.175-.35.445.445,0,0,0-.486-.467c-.019,0-.136,0-.175.039Z" transform="translate(-487.588 -455.494)" fill="#fff"/></g><g transform="translate(55.249 184.332)"><path d="M55.249,599.707a.868.868,0,0,0,.616-.408,4.4,4.4,0,0,0,.448-.915l1.8-4.656a6.5,6.5,0,0,0,.506-1.66q0-.324-.558-.324v-.208l.408.052a4.2,4.2,0,0,0,.5.026,3.034,3.034,0,0,0,.4-.026q.195-.026.363-.052.091.285.246.713t.3.791l1.543,3.891.8,2.036a1.107,1.107,0,0,0,.408.571,1.317,1.317,0,0,0,.37.168v.208l-.506-.052a4.805,4.805,0,0,0-.506-.026q-.3,0-.577.026l-.577.052v-.208a1.444,1.444,0,0,0,.409-.142.393.393,0,0,0,.162-.376,1.768,1.768,0,0,0-.123-.506q-.123-.35-.279-.746t-.3-.752q-.149-.356-.2-.512h-3.32q-.091.221-.233.584t-.272.746q-.13.382-.22.713a2.064,2.064,0,0,0-.091.486.4.4,0,0,0,.195.4,1,1,0,0,0,.376.11v.208l-.415-.052a3.325,3.325,0,0,0-.415-.026q-.311,0-.629.026l-.629.052Zm5.434-3.553L59.2,592.315l-1.427,3.839Z" transform="translate(-55.249 -591.407)" fill="#fff"/><path d="M98.473,599.707a1.594,1.594,0,0,0,.253-.045.59.59,0,0,0,.22-.11.577.577,0,0,0,.162-.233,1.189,1.189,0,0,0,.065-.441q0-.233.039-.9t.091-1.563q.052-.9.091-1.926t.039-1.991a1.007,1.007,0,0,0-.065-.4.55.55,0,0,0-.169-.227.572.572,0,0,0-.227-.1,1.221,1.221,0,0,0-.253-.026v-.208l.46.052a4.037,4.037,0,0,0,.46.026,2.294,2.294,0,0,0,.35-.026l.35-.052q.246.687.532,1.355t.61,1.368l1.945,4.539,2.62-7.262.4.052a3.078,3.078,0,0,0,.4.026,2.988,2.988,0,0,0,.383-.026l.382-.052v.208a.707.707,0,0,0-.428.143.5.5,0,0,0-.195.428q0,.493.033,1.167t.078,1.414q.045.739.1,1.466t.1,1.316q.045.59.078.973t.032.421a.528.528,0,0,0,.233.5.943.943,0,0,0,.48.136v.208l-.519-.052a5.179,5.179,0,0,0-.519-.026q-.3,0-.577.026l-.577.052v-.208a1.7,1.7,0,0,0,.2-.013.518.518,0,0,0,.207-.071.471.471,0,0,0,.162-.169.6.6,0,0,0,.065-.3q0-.622-.039-1.388t-.091-1.589q-.052-.823-.11-1.68t-.11-1.66h-.026l-2.555,7.081h-.584l-3-7.081h-.026q-.039.778-.071,1.693t-.058,1.776q-.026.863-.045,1.6t-.02,1.167a.708.708,0,0,0,.136.493.682.682,0,0,0,.5.142v.208l-.519-.052a5.182,5.182,0,0,0-.519-.026,4.372,4.372,0,0,0-.473.026l-.473.052Z" transform="translate(-89.849 -591.407)" fill="#fff"/><path d="M154.358,592.679a.429.429,0,0,0-.233-.447,1.2,1.2,0,0,0-.467-.1v-.208h6.03q0,.428.039.862t.091.875h-.208q-.1-.272-.169-.5a1.35,1.35,0,0,0-.175-.389.69.69,0,0,0-.3-.247,1.454,1.454,0,0,0-.558-.084h-3.2v3.125h2.166a.573.573,0,0,0,.525-.2,1.959,1.959,0,0,0,.2-.655h.259q-.026.311-.052.616t-.026.616a4.577,4.577,0,0,0,.026.5q.026.24.052.5h-.324a1.257,1.257,0,0,0-.13-.648q-.13-.207-.571-.208H155.2v3.54h3.346a1.614,1.614,0,0,0,.622-.1.979.979,0,0,0,.4-.292,1.314,1.314,0,0,0,.227-.461,5,5,0,0,0,.13-.61h.285q-.039.156-.078.428t-.065.564q-.026.292-.033.558t.007.435h-6.381v-.208a1.2,1.2,0,0,0,.512-.091q.188-.091.188-.48Z" transform="translate(-134.024 -591.719)" fill="#fff"/><path d="M194.073,592.835a.874.874,0,0,0-.065-.37.568.568,0,0,0-.169-.214.5.5,0,0,0-.227-.1,1.511,1.511,0,0,0-.24-.02v-.208h3.4a4.9,4.9,0,0,1,1.083.11,2.337,2.337,0,0,1,.83.35,1.629,1.629,0,0,1,.532.616,1.983,1.983,0,0,1,.188.9,1.856,1.856,0,0,1-.259.992,2.365,2.365,0,0,1-.668.707,3,3,0,0,1-.921.428,3.824,3.824,0,0,1-1.031.143q.7.8,1.394,1.6t1.342,1.66a1.365,1.365,0,0,0,.571.48,1.531,1.531,0,0,0,.558.117v.207l-.37-.052a2.88,2.88,0,0,0-.4-.026,3.171,3.171,0,0,0-.409.026l-.382.052q-.221-.311-.564-.758t-.739-.934q-.4-.486-.8-.96t-.746-.836q-.441-.467-.59-.636t-.149-.233a.1.1,0,0,1,.117-.117q.1,0,.266.013t.37.013a4.821,4.821,0,0,0,.882-.084,2.85,2.85,0,0,0,.83-.286,1.737,1.737,0,0,0,.616-.545,1.446,1.446,0,0,0,.24-.849,1.377,1.377,0,0,0-.195-.765,1.448,1.448,0,0,0-.525-.48,2.384,2.384,0,0,0-.759-.253,5.392,5.392,0,0,0-.882-.071h-1.284v6.848a1.054,1.054,0,0,0,.058.389.531.531,0,0,0,.156.22.462.462,0,0,0,.22.1,1.726,1.726,0,0,0,.266.019v.207l-.493-.052a4.444,4.444,0,0,0-.467-.026q-.3,0-.623.026l-.661.052v-.207a1.555,1.555,0,0,0,.24-.019.5.5,0,0,0,.22-.091A.532.532,0,0,0,194,599.7a1.141,1.141,0,0,0,.078-.4Z" transform="translate(-165.815 -591.719)" fill="#fff"/><path d="M234.37,599.2a.421.421,0,0,0,.188.389.829.829,0,0,0,.447.117v.208l-.551-.052q-.279-.026-.5-.026t-.512.026l-.551.052v-.208a.831.831,0,0,0,.448-.117.422.422,0,0,0,.188-.389v-6.938q0-.363-.169-.441a1.139,1.139,0,0,0-.467-.078v-.208l.545.052a5.192,5.192,0,0,0,.519.026,5.012,5.012,0,0,0,.512-.026q.253-.026.538-.052v.208a1.137,1.137,0,0,0-.467.078q-.169.078-.169.441Z" transform="translate(-197.449 -591.407)" fill="#fff"/><path d="M256.86,598.733a3.3,3.3,0,0,1-1.076.584,4.558,4.558,0,0,1-1.439.208,4.377,4.377,0,0,1-1.79-.35,4.041,4.041,0,0,1-1.349-.953,4.174,4.174,0,0,1-.856-1.42,5.024,5.024,0,0,1-.3-1.738,4,4,0,0,1,.324-1.588,4.509,4.509,0,0,1,.869-1.336,4.1,4.1,0,0,1,1.278-.914,3.663,3.663,0,0,1,1.55-.337,6.138,6.138,0,0,1,1.323.13,5.693,5.693,0,0,1,1.1.363q-.013.195-.013.441t.02.5q.019.253.045.506t.065.46h-.324q-.1-.35-.2-.681a1.537,1.537,0,0,0-.318-.584,1.509,1.509,0,0,0-.6-.4,2.955,2.955,0,0,0-1.044-.149,2.923,2.923,0,0,0-1.349.3,3.292,3.292,0,0,0-1.018.8,3.467,3.467,0,0,0-.642,1.128,3.928,3.928,0,0,0-.22,1.3,4.09,4.09,0,0,0,.24,1.342,4.173,4.173,0,0,0,.707,1.271,3.857,3.857,0,0,0,1.148.953,3.178,3.178,0,0,0,1.563.376,3.026,3.026,0,0,0,1.252-.253,6.741,6.741,0,0,0,1.057-.59Z" transform="translate(-211.185 -590.887)" fill="#fff"/><path d="M286.386,599.707A.868.868,0,0,0,287,599.3a4.408,4.408,0,0,0,.447-.915l1.8-4.656a6.5,6.5,0,0,0,.506-1.66q0-.324-.558-.324v-.208l.409.052a4.193,4.193,0,0,0,.5.026,3.033,3.033,0,0,0,.4-.026q.195-.026.363-.052.091.285.246.713t.3.791l1.543,3.891.8,2.036a1.107,1.107,0,0,0,.408.571,1.317,1.317,0,0,0,.37.168v.208l-.506-.052a4.8,4.8,0,0,0-.506-.026q-.3,0-.577.026l-.577.052v-.208a1.444,1.444,0,0,0,.409-.142.393.393,0,0,0,.162-.376,1.773,1.773,0,0,0-.123-.506q-.123-.35-.279-.746t-.3-.752q-.149-.356-.2-.512h-3.32q-.091.221-.233.584t-.272.746q-.13.382-.22.713a2.075,2.075,0,0,0-.091.486.4.4,0,0,0,.195.4,1,1,0,0,0,.376.11v.208l-.415-.052a3.323,3.323,0,0,0-.415-.026q-.311,0-.629.026l-.629.052Zm5.434-3.553-1.478-3.839-1.427,3.839Z" transform="translate(-240.27 -591.407)" fill="#fff"/><path d="M331.612,592.419q0-.428-.169-.551a.778.778,0,0,0-.467-.123v-.208l.4.052a3.434,3.434,0,0,0,.428.026,3.4,3.4,0,0,0,.434-.026q.2-.026.357-.052,1.206,1.725,2.386,3.443t2.335,3.508h.026v-6.069a.74.74,0,0,0-.071-.344.563.563,0,0,0-.175-.208.631.631,0,0,0-.24-.1,1.348,1.348,0,0,0-.253-.026v-.208l.512.052a5.071,5.071,0,0,0,1.025,0l.486-.052v.208a.779.779,0,0,0-.467.123q-.169.123-.168.551v7.5h-.623q-1.219-1.854-2.509-3.735t-2.574-3.735h-.026v6.588a.6.6,0,0,0,.22.506.958.958,0,0,0,.6.168v.208q-.207-.026-.493-.052t-.61-.026q-.3,0-.558.026t-.441.052v-.208a.744.744,0,0,0,.447-.136.614.614,0,0,0,.188-.525Z" transform="translate(-275.964 -591.407)" fill="#fff"/><path d="M393.308,596.814a2.732,2.732,0,0,0,.66,1.66,2.315,2.315,0,0,0,1.694.532,3.44,3.44,0,0,0,.9-.117,2.371,2.371,0,0,0,.769-.357,1.782,1.782,0,0,0,.537-.609,1.837,1.837,0,0,0,.2-.888,1.382,1.382,0,0,0-.2-.8,1.33,1.33,0,0,0-.532-.441,3.068,3.068,0,0,0-.759-.233q-.428-.078-.895-.169a9.708,9.708,0,0,1-1.174-.3,3.017,3.017,0,0,1-.862-.428,1.922,1.922,0,0,1-.447-2.5,2.391,2.391,0,0,1,.728-.713,3.333,3.333,0,0,1,1.007-.422,4.709,4.709,0,0,1,1.118-.136,7.913,7.913,0,0,1,1.157.084q.572.084,1.157.227-.013.48.013.947t.078.921h-.337a1.888,1.888,0,0,0-.583-1.284,2.376,2.376,0,0,0-1.492-.376,3.829,3.829,0,0,0-.817.091,2.59,2.59,0,0,0-.759.292,1.69,1.69,0,0,0-.557.519,1.327,1.327,0,0,0-.214.759,1.109,1.109,0,0,0,.169.629,1.334,1.334,0,0,0,.467.421,2.827,2.827,0,0,0,.72.273q.421.1.927.195.571.1,1.1.24a3.505,3.505,0,0,1,.934.383,1.943,1.943,0,0,1,.655.642,1.847,1.847,0,0,1,.246.992,2.482,2.482,0,0,1-.259,1.161,2.413,2.413,0,0,1-.713.836,3.274,3.274,0,0,1-1.07.512,4.9,4.9,0,0,1-1.342.175q-.285,0-.609-.032a6.033,6.033,0,0,1-.655-.1,5.184,5.184,0,0,1-.642-.182,2.765,2.765,0,0,1-.558-.266q0-.195-.013-.48t-.019-.59q-.007-.305-.026-.59l-.032-.467Z" transform="translate(-325.548 -590.887)" fill="#fff"/><path d="M428.8,595.063a4.213,4.213,0,0,1,.318-1.634,4.281,4.281,0,0,1,.856-1.329,4.021,4.021,0,0,1,1.245-.888,3.521,3.521,0,0,1,1.485-.324,4.125,4.125,0,0,1,1.893.415,4.291,4.291,0,0,1,1.362,1.063,4.464,4.464,0,0,1,.817,1.452,4.944,4.944,0,0,1,.273,1.595,4.039,4.039,0,0,1-.324,1.628,4.3,4.3,0,0,1-.869,1.3,3.954,3.954,0,0,1-1.258.869,3.724,3.724,0,0,1-1.5.311,4.112,4.112,0,0,1-1.764-.37,4.21,4.21,0,0,1-1.355-.992,4.452,4.452,0,0,1-.869-1.427A4.681,4.681,0,0,1,428.8,595.063Zm.843.026a4.06,4.06,0,0,0,.253,1.414,4.221,4.221,0,0,0,.7,1.232,3.491,3.491,0,0,0,1.07.875,2.883,2.883,0,0,0,1.375.331,2.914,2.914,0,0,0,1.193-.253,3.09,3.09,0,0,0,1-.713,3.537,3.537,0,0,0,.7-1.122,3.934,3.934,0,0,0,.266-1.478,4.369,4.369,0,0,0-.24-1.427,4.207,4.207,0,0,0-.674-1.252,3.413,3.413,0,0,0-1.05-.888,2.8,2.8,0,0,0-1.368-.337,3.352,3.352,0,0,0-1.349.259,2.889,2.889,0,0,0-1.018.733,3.194,3.194,0,0,0-.642,1.141A4.716,4.716,0,0,0,429.643,595.089Z" transform="translate(-354.27 -590.887)" fill="#fff"/><path d="M482.537,598.733a3.3,3.3,0,0,1-1.076.584,4.558,4.558,0,0,1-1.44.208,4.377,4.377,0,0,1-1.79-.35,4.038,4.038,0,0,1-1.349-.953,4.17,4.17,0,0,1-.856-1.42,5.024,5.024,0,0,1-.3-1.738,4,4,0,0,1,.324-1.588,4.509,4.509,0,0,1,.869-1.336,4.091,4.091,0,0,1,1.277-.914,3.664,3.664,0,0,1,1.55-.337,6.137,6.137,0,0,1,1.323.13,5.692,5.692,0,0,1,1.1.363q-.013.195-.013.441t.019.5q.019.253.046.506t.065.46h-.324q-.1-.35-.2-.681a1.54,1.54,0,0,0-.318-.584,1.513,1.513,0,0,0-.6-.4,2.954,2.954,0,0,0-1.044-.149,2.922,2.922,0,0,0-1.349.3,3.294,3.294,0,0,0-1.018.8,3.464,3.464,0,0,0-.642,1.128,3.923,3.923,0,0,0-.221,1.3,4.09,4.09,0,0,0,.24,1.342,4.178,4.178,0,0,0,.707,1.271,3.86,3.86,0,0,0,1.148.953,3.178,3.178,0,0,0,1.563.376,3.026,3.026,0,0,0,1.252-.253,6.74,6.74,0,0,0,1.057-.59Z" transform="translate(-391.835 -590.887)" fill="#fff"/><path d="M517.9,599.2a.422.422,0,0,0,.188.389.83.83,0,0,0,.448.117v.208l-.551-.052q-.279-.026-.5-.026t-.512.026l-.551.052v-.208a.83.83,0,0,0,.448-.117.422.422,0,0,0,.188-.389v-6.938q0-.363-.168-.441a1.14,1.14,0,0,0-.467-.078v-.208l.545.052q.259.026.519.026a5.006,5.006,0,0,0,.512-.026q.253-.026.538-.052v.208a1.136,1.136,0,0,0-.467.078q-.169.078-.169.441Z" transform="translate(-424.407 -591.407)" fill="#fff"/><path d="M535.447,592.679a.429.429,0,0,0-.233-.447,1.2,1.2,0,0,0-.467-.1v-.208h6.031q0,.428.039.862t.091.875H540.7q-.1-.272-.169-.5a1.358,1.358,0,0,0-.175-.389.69.69,0,0,0-.3-.247,1.453,1.453,0,0,0-.558-.084h-3.2v3.125h2.166a.573.573,0,0,0,.525-.2,1.959,1.959,0,0,0,.2-.655h.259q-.026.311-.052.616t-.026.616a4.57,4.57,0,0,0,.026.5q.025.24.052.5h-.324a1.257,1.257,0,0,0-.13-.648q-.13-.207-.57-.208H536.29v3.54h3.346a1.612,1.612,0,0,0,.622-.1.977.977,0,0,0,.4-.292,1.314,1.314,0,0,0,.227-.461,5.028,5.028,0,0,0,.13-.61h.285q-.039.156-.078.428t-.065.564q-.026.292-.032.558t.007.435h-6.381v-.208a1.2,1.2,0,0,0,.512-.091q.188-.091.188-.48Z" transform="translate(-439.079 -591.719)" fill="#fff"/><path d="M573.456,600.019a1.554,1.554,0,0,0,.24-.019.5.5,0,0,0,.221-.091.53.53,0,0,0,.162-.214,1.139,1.139,0,0,0,.078-.4v-6.848h-.493a4,4,0,0,0-.759.058,1.06,1.06,0,0,0-.467.2,1.019,1.019,0,0,0-.285.4,4.768,4.768,0,0,0-.214.661l-.117.441h-.285q.039-.454.058-.986t.02-1.012v-.285h5.927v.285q0,.48.019,1.012t.058.986h-.285l-.117-.441a4.856,4.856,0,0,0-.214-.661,1.025,1.025,0,0,0-.285-.4,1.057,1.057,0,0,0-.461-.2,3.892,3.892,0,0,0-.752-.058H575v6.848a1.049,1.049,0,0,0,.058.389.531.531,0,0,0,.156.22.462.462,0,0,0,.22.1,1.727,1.727,0,0,0,.266.019v.207l-.493-.052a4.443,4.443,0,0,0-.467-.026q-.3,0-.622.026l-.661.052Z" transform="translate(-468.529 -591.719)" fill="#fff"/><path d="M603.451,591.537l.571.052q.285.026.571.026t.584-.026l.583-.052v.208a1.268,1.268,0,0,0-.434.065.272.272,0,0,0-.175.285,1.134,1.134,0,0,0,.136.441q.136.285.357.687l1.44,2.71,1.349-2.49a7.464,7.464,0,0,0,.357-.733,1.576,1.576,0,0,0,.136-.59.3.3,0,0,0-.175-.3,1.071,1.071,0,0,0-.435-.078v-.208l.616.052q.3.026.616.026a4.513,4.513,0,0,0,.486-.026l.473-.052v.208a.821.821,0,0,0-.661.376,9.153,9.153,0,0,0-.7,1.154l-1.8,3.307v2.529q0,.376.182.486a.81.81,0,0,0,.428.11v.208l-.48-.052a4.325,4.325,0,0,0-.48-.026q-.272,0-.551.026l-.551.052v-.208a.872.872,0,0,0,.2-.026.635.635,0,0,0,.2-.084.454.454,0,0,0,.149-.162.554.554,0,0,0,.058-.272v-2.62L604.631,593a5.1,5.1,0,0,0-.616-.96.76.76,0,0,0-.564-.3Z" transform="translate(-494.075 -591.407)" fill="#fff"/><path d="M658.246,595.063a4.212,4.212,0,0,1,.318-1.634,4.282,4.282,0,0,1,.856-1.329,4.026,4.026,0,0,1,1.245-.888,3.521,3.521,0,0,1,1.485-.324,4.126,4.126,0,0,1,1.893.415,4.289,4.289,0,0,1,1.362,1.063,4.466,4.466,0,0,1,.817,1.452,4.951,4.951,0,0,1,.272,1.595,4.039,4.039,0,0,1-.324,1.628,4.294,4.294,0,0,1-.869,1.3,3.953,3.953,0,0,1-1.258.869,3.725,3.725,0,0,1-1.5.311,4.112,4.112,0,0,1-1.764-.37,4.211,4.211,0,0,1-1.355-.992,4.454,4.454,0,0,1-.869-1.427A4.681,4.681,0,0,1,658.246,595.063Zm.843.026a4.066,4.066,0,0,0,.253,1.414,4.224,4.224,0,0,0,.7,1.232,3.491,3.491,0,0,0,1.07.875,2.883,2.883,0,0,0,1.375.331,2.914,2.914,0,0,0,1.193-.253,3.091,3.091,0,0,0,1.005-.713,3.536,3.536,0,0,0,.7-1.122,3.933,3.933,0,0,0,.266-1.478,4.369,4.369,0,0,0-.24-1.427,4.209,4.209,0,0,0-.674-1.252,3.413,3.413,0,0,0-1.05-.888,2.8,2.8,0,0,0-1.368-.337,3.354,3.354,0,0,0-1.349.259,2.888,2.888,0,0,0-1.018.733,3.2,3.2,0,0,0-.642,1.141A4.716,4.716,0,0,0,659.089,595.089Z" transform="translate(-537.938 -590.887)" fill="#fff"/><path d="M707.046,592.679a.429.429,0,0,0-.233-.447,1.2,1.2,0,0,0-.467-.1v-.208h5.563q.013.376.013.564c0,.125,0,.22.006.285s.007.112.007.143,0,.071.007.123.013.132.026.24.028.275.045.5h-.324q-.065-.311-.11-.558a1.374,1.374,0,0,0-.143-.421.669.669,0,0,0-.259-.266.958.958,0,0,0-.461-.091h-2.827v3.333h1.8a1.327,1.327,0,0,0,.389-.045.426.426,0,0,0,.221-.149.586.586,0,0,0,.1-.259q.026-.156.052-.389h.207q-.026.285-.045.584t-.02.583q0,.338.02.6t.045.519h-.207q-.026-.259-.058-.434a.714.714,0,0,0-.11-.286.416.416,0,0,0-.227-.155,1.46,1.46,0,0,0-.409-.045h-1.764v3.2a.359.359,0,0,0,.1.266.717.717,0,0,0,.24.156,1.184,1.184,0,0,0,.318.078,2.933,2.933,0,0,0,.318.019v.207l-.584-.052q-.285-.026-.584-.026t-.629.026q-.318.026-.72.052v-.207a1.193,1.193,0,0,0,.512-.091c.125-.06.188-.22.188-.48Z" transform="translate(-576.441 -591.719)" fill="#fff"/><path d="M107.3,664.293a1.054,1.054,0,0,0,.058.389.531.531,0,0,0,.156.22.463.463,0,0,0,.22.1,1.727,1.727,0,0,0,.266.019v.208l-.493-.052a4.445,4.445,0,0,0-.467-.026q-.3,0-.622.026l-.661.052v-.208a1.555,1.555,0,0,0,.24-.019.5.5,0,0,0,.22-.091.531.531,0,0,0,.162-.214,1.14,1.14,0,0,0,.078-.4v-6.458a.87.87,0,0,0-.065-.37.566.566,0,0,0-.168-.214.505.505,0,0,0-.227-.1,1.512,1.512,0,0,0-.24-.02v-.208h3.19a3.568,3.568,0,0,1,1.251.2,2.691,2.691,0,0,1,.9.538,2.254,2.254,0,0,1,.551.785,2.4,2.4,0,0,1,.188.94,2.9,2.9,0,0,1-.2,1.1,2.385,2.385,0,0,1-.551.83,2.44,2.44,0,0,1-.817.519,2.731,2.731,0,0,1-1,.182,3.258,3.258,0,0,1-.655-.065,3.167,3.167,0,0,1-.558-.162,2.059,2.059,0,0,1-.382-.195c-.1-.065-.143-.123-.143-.175,0-.069.026-.1.078-.1a1.64,1.64,0,0,1,.376.091,2.543,2.543,0,0,0,.752.091,2.591,2.591,0,0,0,.862-.143,2.358,2.358,0,0,0,.72-.4,1.851,1.851,0,0,0,.493-.616,1.771,1.771,0,0,0,.182-.8,2.067,2.067,0,0,0-.227-1.025,1.779,1.779,0,0,0-.61-.642,2.568,2.568,0,0,0-.869-.337,5.043,5.043,0,0,0-.992-.1h-1Z" transform="translate(-95.676 -643.751)" fill="#fff"/><path d="M142.853,657.263q0-.363-.169-.441a1.14,1.14,0,0,0-.467-.078v-.208c.156.017.259.031.311.039a.856.856,0,0,0,.143.013c.043,0,.1,0,.182.006s.22.011.428.02q.363,0,.642-.026t.473-.052v.208a2.444,2.444,0,0,0-.253.013.842.842,0,0,0-.22.052.4.4,0,0,0-.162.117.335.335,0,0,0-.065.221v7.185h2.84a1.214,1.214,0,0,0,.674-.162,1.121,1.121,0,0,0,.382-.421,2.02,2.02,0,0,0,.195-.571q.058-.311.123-.623h.259q-.078.584-.13,1.148t-.052,1.148h-5.771v-.207a.832.832,0,0,0,.447-.117.422.422,0,0,0,.188-.389Z" transform="translate(-124.866 -643.439)" fill="#fff"/><path d="M173.482,664.707a.868.868,0,0,0,.616-.408,4.395,4.395,0,0,0,.447-.915l1.8-4.656a6.5,6.5,0,0,0,.506-1.66q0-.324-.558-.324v-.208l.409.052a4.2,4.2,0,0,0,.5.026,3.034,3.034,0,0,0,.4-.026q.195-.026.363-.052.091.285.246.713t.3.791l1.543,3.891.8,2.036a1.106,1.106,0,0,0,.409.571,1.317,1.317,0,0,0,.37.168v.208l-.506-.052a4.816,4.816,0,0,0-.506-.026q-.3,0-.577.026l-.577.052v-.208a1.44,1.44,0,0,0,.409-.142.393.393,0,0,0,.162-.376,1.774,1.774,0,0,0-.123-.506q-.123-.35-.279-.746t-.3-.752q-.149-.356-.2-.512h-3.32q-.091.221-.234.584t-.272.746q-.13.383-.22.713a2.074,2.074,0,0,0-.091.486.4.4,0,0,0,.195.4,1,1,0,0,0,.376.11v.208l-.415-.052a3.334,3.334,0,0,0-.415-.026q-.311,0-.629.026l-.629.052Zm5.434-3.553-1.478-3.839-1.427,3.839Z" transform="translate(-149.892 -643.439)" fill="#fff"/><path d="M217.226,661.814a2.732,2.732,0,0,0,.66,1.66,2.315,2.315,0,0,0,1.694.532,3.44,3.44,0,0,0,.9-.117,2.368,2.368,0,0,0,.769-.357,1.782,1.782,0,0,0,.537-.609,1.838,1.838,0,0,0,.2-.888,1.382,1.382,0,0,0-.2-.8,1.331,1.331,0,0,0-.532-.441,3.067,3.067,0,0,0-.759-.233q-.428-.078-.895-.169a9.715,9.715,0,0,1-1.174-.3,3.022,3.022,0,0,1-.863-.428,1.921,1.921,0,0,1-.447-2.5,2.387,2.387,0,0,1,.728-.713,3.333,3.333,0,0,1,1.007-.422,4.708,4.708,0,0,1,1.118-.136,7.921,7.921,0,0,1,1.157.084q.572.084,1.157.227-.013.48.013.947t.078.921h-.337a1.888,1.888,0,0,0-.584-1.284,2.376,2.376,0,0,0-1.491-.376,3.833,3.833,0,0,0-.817.091,2.589,2.589,0,0,0-.759.292,1.693,1.693,0,0,0-.557.519,1.326,1.326,0,0,0-.214.759,1.109,1.109,0,0,0,.169.629,1.336,1.336,0,0,0,.467.421,2.825,2.825,0,0,0,.72.273q.421.1.927.195.57.1,1.1.24a3.5,3.5,0,0,1,.934.383,1.942,1.942,0,0,1,.655.642,1.847,1.847,0,0,1,.246.992,2.482,2.482,0,0,1-.259,1.161,2.415,2.415,0,0,1-.713.836,3.275,3.275,0,0,1-1.07.512,4.895,4.895,0,0,1-1.342.175q-.285,0-.61-.032a6.056,6.056,0,0,1-.655-.1,5.182,5.182,0,0,1-.642-.182,2.761,2.761,0,0,1-.558-.266q0-.195-.013-.48t-.019-.59q-.007-.3-.026-.59t-.033-.467Z" transform="translate(-184.597 -642.918)" fill="#fff"/><path d="M252.881,665.019a1.554,1.554,0,0,0,.24-.019.5.5,0,0,0,.22-.091.531.531,0,0,0,.162-.214,1.141,1.141,0,0,0,.078-.4v-6.848h-.493a4.009,4.009,0,0,0-.759.058,1.06,1.06,0,0,0-.467.2,1.021,1.021,0,0,0-.285.4,4.8,4.8,0,0,0-.214.661l-.117.441h-.285q.039-.454.058-.986t.02-1.012v-.285h5.927v.285q0,.48.019,1.012t.058.986h-.285l-.117-.441a4.853,4.853,0,0,0-.214-.661,1.022,1.022,0,0,0-.285-.4,1.055,1.055,0,0,0-.46-.2,3.9,3.9,0,0,0-.752-.058h-.506v6.848a1.058,1.058,0,0,0,.058.389.531.531,0,0,0,.156.22.463.463,0,0,0,.22.1,1.728,1.728,0,0,0,.266.019v.208l-.493-.052a4.444,4.444,0,0,0-.467-.026q-.3,0-.622.026l-.661.052Z" transform="translate(-211.914 -643.751)" fill="#fff"/><path d="M287.734,664.2a.421.421,0,0,0,.188.389.829.829,0,0,0,.448.117v.208l-.551-.052q-.279-.026-.5-.026t-.512.026l-.551.052v-.208a.83.83,0,0,0,.448-.117.422.422,0,0,0,.188-.389v-6.938q0-.363-.169-.441a1.139,1.139,0,0,0-.467-.078v-.208l.545.052q.259.026.519.026a5.007,5.007,0,0,0,.512-.026q.253-.026.538-.052v.208a1.139,1.139,0,0,0-.467.078q-.169.078-.169.441Z" transform="translate(-240.166 -643.439)" fill="#fff"/><path d="M310.224,663.733a3.3,3.3,0,0,1-1.076.584,4.559,4.559,0,0,1-1.44.208,4.377,4.377,0,0,1-1.79-.35,4.04,4.04,0,0,1-1.349-.953,4.171,4.171,0,0,1-.856-1.42,5.023,5.023,0,0,1-.3-1.738,4,4,0,0,1,.324-1.588,4.5,4.5,0,0,1,.869-1.336,4.091,4.091,0,0,1,1.277-.914,3.661,3.661,0,0,1,1.55-.337,6.142,6.142,0,0,1,1.323.13,5.707,5.707,0,0,1,1.1.363q-.013.195-.013.441t.019.5q.019.253.045.506t.065.46h-.324q-.1-.35-.2-.681a1.54,1.54,0,0,0-.318-.584,1.511,1.511,0,0,0-.6-.4,2.955,2.955,0,0,0-1.044-.149,2.921,2.921,0,0,0-1.349.3,3.294,3.294,0,0,0-1.018.8,3.465,3.465,0,0,0-.642,1.128,3.927,3.927,0,0,0-.22,1.3,4.091,4.091,0,0,0,.24,1.342,4.172,4.172,0,0,0,.707,1.271,3.855,3.855,0,0,0,1.148.953,3.177,3.177,0,0,0,1.563.376,3.026,3.026,0,0,0,1.252-.253,6.748,6.748,0,0,0,1.057-.59Z" transform="translate(-253.902 -642.918)" fill="#fff"/><path d="M360.03,661.814a2.732,2.732,0,0,0,.66,1.66,2.314,2.314,0,0,0,1.694.532,3.44,3.44,0,0,0,.9-.117,2.368,2.368,0,0,0,.769-.357,1.783,1.783,0,0,0,.537-.609,1.838,1.838,0,0,0,.2-.888,1.382,1.382,0,0,0-.2-.8,1.33,1.33,0,0,0-.532-.441,3.067,3.067,0,0,0-.759-.233q-.428-.078-.895-.169a9.714,9.714,0,0,1-1.174-.3,3.027,3.027,0,0,1-.863-.428,1.922,1.922,0,0,1-.447-2.5,2.39,2.39,0,0,1,.728-.713,3.333,3.333,0,0,1,1.007-.422,4.7,4.7,0,0,1,1.118-.136,7.921,7.921,0,0,1,1.157.084q.572.084,1.157.227-.013.48.013.947t.078.921h-.337a1.889,1.889,0,0,0-.584-1.284,2.375,2.375,0,0,0-1.491-.376,3.835,3.835,0,0,0-.817.091,2.588,2.588,0,0,0-.759.292,1.691,1.691,0,0,0-.558.519,1.326,1.326,0,0,0-.214.759,1.109,1.109,0,0,0,.169.629,1.334,1.334,0,0,0,.467.421,2.823,2.823,0,0,0,.72.273q.421.1.927.195.571.1,1.1.24a3.5,3.5,0,0,1,.934.383,1.942,1.942,0,0,1,.655.642,1.847,1.847,0,0,1,.246.992,2.484,2.484,0,0,1-.259,1.161,2.418,2.418,0,0,1-.713.836,3.273,3.273,0,0,1-1.07.512,4.894,4.894,0,0,1-1.342.175q-.286,0-.61-.032a6.059,6.059,0,0,1-.655-.1,5.182,5.182,0,0,1-.642-.182,2.76,2.76,0,0,1-.558-.266q0-.195-.013-.48t-.019-.59q-.007-.3-.026-.59t-.033-.467Z" transform="translate(-298.91 -642.918)" fill="#fff"/><path d="M397.391,657.484a.767.767,0,0,0-.175-.577.567.567,0,0,0-.4-.162v-.208l.532.052q.272.026.558.026.259,0,.519-.026l.519-.052v.208a.883.883,0,0,0-.525.136q-.188.136-.188.59v4.513a2.9,2.9,0,0,0,.532,1.932,1.889,1.889,0,0,0,1.5.61,2.062,2.062,0,0,0,1.621-.61,2.849,2.849,0,0,0,.545-1.932v-4.513a.706.706,0,0,0-.188-.59.884.884,0,0,0-.525-.136v-.208l.519.052q.259.026.519.026.285,0,.558-.026l.532-.052v.208a.567.567,0,0,0-.4.162.767.767,0,0,0-.175.577V662.1a2.918,2.918,0,0,1-.778,2.179,3.448,3.448,0,0,1-4.332,0,2.918,2.918,0,0,1-.778-2.179Z" transform="translate(-328.671 -643.439)" fill="#fff"/><path d="M440.81,657.835a.874.874,0,0,0-.065-.37.566.566,0,0,0-.169-.214.5.5,0,0,0-.227-.1,1.514,1.514,0,0,0-.24-.02v-.208h3.4a4.9,4.9,0,0,1,1.083.11,2.336,2.336,0,0,1,.83.35,1.626,1.626,0,0,1,.532.616,1.986,1.986,0,0,1,.188.9,1.856,1.856,0,0,1-.26.992,2.362,2.362,0,0,1-.668.707,3,3,0,0,1-.921.428,3.827,3.827,0,0,1-1.031.143q.7.8,1.394,1.6t1.342,1.66a1.366,1.366,0,0,0,.571.48,1.532,1.532,0,0,0,.558.117v.208l-.37-.052a2.883,2.883,0,0,0-.4-.026,3.169,3.169,0,0,0-.408.026l-.382.052q-.221-.311-.564-.758t-.739-.934q-.4-.486-.8-.96t-.746-.836q-.441-.467-.59-.636t-.149-.233a.1.1,0,0,1,.117-.117c.069,0,.158,0,.266.013s.231.013.37.013a4.816,4.816,0,0,0,.882-.084,2.847,2.847,0,0,0,.83-.285,1.739,1.739,0,0,0,.616-.545,1.448,1.448,0,0,0,.24-.849,1.378,1.378,0,0,0-.194-.765,1.449,1.449,0,0,0-.525-.48,2.382,2.382,0,0,0-.759-.253,5.39,5.39,0,0,0-.882-.071h-1.284v6.848a1.053,1.053,0,0,0,.058.389.53.53,0,0,0,.156.22.462.462,0,0,0,.22.1,1.725,1.725,0,0,0,.266.019v.208l-.493-.052a4.446,4.446,0,0,0-.467-.026q-.3,0-.622.026l-.662.052v-.208a1.557,1.557,0,0,0,.24-.019.5.5,0,0,0,.22-.091.529.529,0,0,0,.162-.214,1.131,1.131,0,0,0,.078-.4Z" transform="translate(-363.324 -643.751)" fill="#fff"/><path d="M485.58,664.394h-.337l-.052-.233a2.15,2.15,0,0,0-.311-.739,3.352,3.352,0,0,1-.408.415,2.955,2.955,0,0,1-.512.35,2.753,2.753,0,0,1-.642.247,3.191,3.191,0,0,1-.784.091,3.6,3.6,0,0,1-2.886-1.316,4.069,4.069,0,0,1-.733-1.355,5.414,5.414,0,0,1-.259-1.582,4.6,4.6,0,0,1,.292-1.614,4.423,4.423,0,0,1,.836-1.4,4.183,4.183,0,0,1,1.316-.992,3.93,3.93,0,0,1,1.744-.376,6.142,6.142,0,0,1,1.323.13,5.712,5.712,0,0,1,1.1.363q-.013.195-.013.441t.02.5c.013.169.028.337.045.506s.039.322.065.46h-.324q-.1-.35-.2-.681a1.539,1.539,0,0,0-.318-.584,1.51,1.51,0,0,0-.6-.4,2.955,2.955,0,0,0-1.044-.149,3.534,3.534,0,0,0-1.4.266,3.164,3.164,0,0,0-1.757,1.835,3.853,3.853,0,0,0-.24,1.374,4.6,4.6,0,0,0,.279,1.634,4.078,4.078,0,0,0,.739,1.264,3.274,3.274,0,0,0,1.057.81,2.822,2.822,0,0,0,1.232.286,1.812,1.812,0,0,0,.558-.1,2.659,2.659,0,0,0,.564-.26,2.233,2.233,0,0,0,.467-.376,1.22,1.22,0,0,0,.279-.447,1.768,1.768,0,0,0,.052-.344c.008-.134.013-.257.013-.37v-.752a.427.427,0,0,0-.1-.292.727.727,0,0,0-.234-.175.943.943,0,0,0-.285-.084,1.972,1.972,0,0,0-.253-.02v-.207l.551.052q.279.026.642.026.311,0,.616-.026t.564-.052v.207a1.2,1.2,0,0,0-.195.02.763.763,0,0,0-.22.071.462.462,0,0,0-.175.156.447.447,0,0,0-.071.259Z" transform="translate(-394.178 -642.918)" fill="#fff"/><path d="M523.88,657.679a.429.429,0,0,0-.233-.447,1.205,1.205,0,0,0-.467-.1v-.208h6.03q0,.428.039.862t.091.875h-.208q-.1-.272-.169-.5a1.356,1.356,0,0,0-.175-.389.69.69,0,0,0-.3-.247,1.454,1.454,0,0,0-.558-.084h-3.2v3.125h2.166a.573.573,0,0,0,.525-.2,1.966,1.966,0,0,0,.2-.655h.259q-.026.311-.052.616t-.026.616a4.584,4.584,0,0,0,.026.5q.026.24.052.5h-.324a1.259,1.259,0,0,0-.13-.648q-.13-.207-.571-.208h-2.127v3.54h3.346a1.613,1.613,0,0,0,.622-.1.978.978,0,0,0,.4-.292,1.312,1.312,0,0,0,.227-.461,5.02,5.02,0,0,0,.13-.61h.285q-.039.156-.078.428t-.065.564q-.026.292-.033.558t.007.435H523.18v-.208a1.2,1.2,0,0,0,.512-.091q.188-.091.188-.48Z" transform="translate(-429.82 -643.751)" fill="#fff"/><path d="M561.724,660.063a4.216,4.216,0,0,1,.318-1.634,4.287,4.287,0,0,1,.856-1.329,4.022,4.022,0,0,1,1.245-.888,3.521,3.521,0,0,1,1.485-.324,4.125,4.125,0,0,1,1.893.415,4.289,4.289,0,0,1,1.362,1.063,4.462,4.462,0,0,1,.817,1.453,4.95,4.95,0,0,1,.272,1.595,4.039,4.039,0,0,1-.324,1.628,4.3,4.3,0,0,1-.869,1.3,3.957,3.957,0,0,1-1.258.869,3.725,3.725,0,0,1-1.5.311,4.113,4.113,0,0,1-1.764-.37,4.213,4.213,0,0,1-1.355-.992,4.456,4.456,0,0,1-.869-1.427A4.678,4.678,0,0,1,561.724,660.063Zm.843.026a4.061,4.061,0,0,0,.253,1.414,4.216,4.216,0,0,0,.7,1.232,3.491,3.491,0,0,0,1.07.875,2.883,2.883,0,0,0,1.374.331,2.913,2.913,0,0,0,1.193-.253,3.087,3.087,0,0,0,1-.713,3.535,3.535,0,0,0,.7-1.122,3.935,3.935,0,0,0,.266-1.478,4.375,4.375,0,0,0-.24-1.427,4.208,4.208,0,0,0-.674-1.252,3.412,3.412,0,0,0-1.05-.888,2.8,2.8,0,0,0-1.368-.337,3.351,3.351,0,0,0-1.349.259,2.89,2.89,0,0,0-1.018.733,3.2,3.2,0,0,0-.642,1.141A4.712,4.712,0,0,0,562.567,660.089Z" transform="translate(-460.674 -642.918)" fill="#fff"/><path d="M610.784,657.419q0-.428-.169-.551a.779.779,0,0,0-.467-.123v-.208l.4.052a3.44,3.44,0,0,0,.428.026,3.4,3.4,0,0,0,.434-.026q.2-.026.356-.052,1.206,1.725,2.386,3.443t2.335,3.508h.026v-6.069a.742.742,0,0,0-.071-.344.563.563,0,0,0-.175-.207.627.627,0,0,0-.24-.1,1.349,1.349,0,0,0-.253-.026v-.208l.512.052a5.069,5.069,0,0,0,1.024,0l.486-.052v.208a.779.779,0,0,0-.467.123q-.169.123-.169.551v7.5h-.623q-1.219-1.854-2.509-3.735t-2.574-3.735h-.026v6.588a.6.6,0,0,0,.22.506.959.959,0,0,0,.6.168v.208q-.208-.026-.493-.052t-.609-.026q-.3,0-.558.026t-.441.052v-.208a.744.744,0,0,0,.448-.136.614.614,0,0,0,.188-.525Z" transform="translate(-499.436 -643.439)" fill="#fff"/><path d="M656.231,661.814a2.732,2.732,0,0,0,.66,1.66,2.315,2.315,0,0,0,1.694.532,3.442,3.442,0,0,0,.9-.117,2.368,2.368,0,0,0,.769-.357,1.782,1.782,0,0,0,.537-.609,1.841,1.841,0,0,0,.2-.888,1.383,1.383,0,0,0-.2-.8,1.33,1.33,0,0,0-.532-.441,3.069,3.069,0,0,0-.759-.233q-.428-.078-.895-.169a9.715,9.715,0,0,1-1.174-.3,3.022,3.022,0,0,1-.862-.428,1.922,1.922,0,0,1-.447-2.5,2.389,2.389,0,0,1,.728-.713,3.33,3.33,0,0,1,1.007-.422,4.71,4.71,0,0,1,1.118-.136,7.922,7.922,0,0,1,1.157.084q.572.084,1.157.227-.013.48.013.947t.078.921h-.337a1.888,1.888,0,0,0-.583-1.284,2.376,2.376,0,0,0-1.491-.376,3.834,3.834,0,0,0-.817.091,2.588,2.588,0,0,0-.759.292,1.694,1.694,0,0,0-.558.519,1.328,1.328,0,0,0-.214.759,1.107,1.107,0,0,0,.169.629,1.334,1.334,0,0,0,.467.421,2.828,2.828,0,0,0,.72.273q.421.1.927.195.571.1,1.1.24a3.5,3.5,0,0,1,.934.383,1.943,1.943,0,0,1,.655.642,1.847,1.847,0,0,1,.246.992,2.484,2.484,0,0,1-.259,1.161,2.415,2.415,0,0,1-.713.836,3.277,3.277,0,0,1-1.07.512,4.9,4.9,0,0,1-1.342.175q-.285,0-.609-.032a6.063,6.063,0,0,1-.655-.1,5.2,5.2,0,0,1-.642-.182,2.763,2.763,0,0,1-.558-.266q0-.195-.013-.48t-.02-.59q-.007-.3-.026-.59t-.033-.467Z" transform="translate(-536.013 -642.918)" fill="#fff"/></g><g transform="translate(96.735 83)"><path d="M263.181,91.17a1.633,1.633,0,0,0,.253-.045.587.587,0,0,0,.22-.11.575.575,0,0,0,.162-.233,1.184,1.184,0,0,0,.065-.441q0-.233.039-.9l.091-1.563q.051-.895.091-1.926t.039-1.991a1.009,1.009,0,0,0-.065-.4.552.552,0,0,0-.169-.227.572.572,0,0,0-.227-.1,1.235,1.235,0,0,0-.253-.026V83l.46.052a3.989,3.989,0,0,0,.46.026,2.265,2.265,0,0,0,.35-.026l.35-.052q.246.687.532,1.355t.609,1.368l1.945,4.539L270.755,83l.4.052a3.043,3.043,0,0,0,.4.026,2.946,2.946,0,0,0,.382-.026c.134-.017.261-.035.383-.052v.207a.708.708,0,0,0-.428.143.5.5,0,0,0-.195.428q0,.493.033,1.167t.078,1.414q.046.739.1,1.465t.1,1.316q.045.59.078.973t.033.421a.529.529,0,0,0,.233.5.941.941,0,0,0,.48.136v.208l-.519-.052q-.26-.026-.519-.026-.3,0-.577.026l-.577.052V91.17a1.7,1.7,0,0,0,.2-.013.516.516,0,0,0,.208-.071.471.471,0,0,0,.162-.169.6.6,0,0,0,.065-.3q0-.622-.039-1.388t-.091-1.589q-.052-.824-.11-1.68t-.11-1.66h-.026l-2.555,7.081h-.584l-3-7.081h-.026q-.039.778-.071,1.692t-.058,1.777q-.026.863-.045,1.6t-.019,1.167a.707.707,0,0,0,.136.493.682.682,0,0,0,.5.143v.208l-.519-.052a5.2,5.2,0,0,0-.519-.026,4.383,4.383,0,0,0-.473.026l-.473.052Z" transform="translate(-263.181 -83)" fill="#fff"/><path d="M319.066,84.142a.429.429,0,0,0-.233-.447,1.206,1.206,0,0,0-.467-.1V83.39h6.03q0,.428.039.862t.091.875h-.207q-.1-.272-.169-.5a1.355,1.355,0,0,0-.175-.389.692.692,0,0,0-.3-.246,1.451,1.451,0,0,0-.558-.084h-3.2v3.125h2.166a.573.573,0,0,0,.525-.2,1.959,1.959,0,0,0,.2-.655h.259l-.052.616q-.026.3-.026.616a4.629,4.629,0,0,0,.026.5q.026.24.052.5h-.324a1.258,1.258,0,0,0-.13-.648q-.13-.207-.571-.208h-2.127v3.54h3.346a1.609,1.609,0,0,0,.622-.1.974.974,0,0,0,.4-.292,1.313,1.313,0,0,0,.227-.46,4.975,4.975,0,0,0,.13-.61h.285q-.039.156-.078.428t-.065.564q-.026.292-.032.558t.006.435h-6.381V91.4a1.194,1.194,0,0,0,.512-.091q.188-.091.188-.48Z" transform="translate(-307.356 -83.312)" fill="#fff"/><path d="M357.04,91.17a1.634,1.634,0,0,0,.253-.045.589.589,0,0,0,.22-.11.575.575,0,0,0,.162-.233,1.184,1.184,0,0,0,.065-.441q0-.233.039-.9t.091-1.563q.052-.895.091-1.926T358,83.96a1.009,1.009,0,0,0-.065-.4.552.552,0,0,0-.169-.227.572.572,0,0,0-.227-.1,1.235,1.235,0,0,0-.253-.026V83l.46.052a3.99,3.99,0,0,0,.46.026,2.265,2.265,0,0,0,.35-.026l.35-.052q.246.687.532,1.355t.609,1.368l1.945,4.539L364.614,83l.4.052a3.041,3.041,0,0,0,.4.026,2.946,2.946,0,0,0,.382-.026q.2-.026.382-.052v.207a.709.709,0,0,0-.428.143.5.5,0,0,0-.195.428q0,.493.033,1.167t.078,1.414q.045.739.1,1.465t.1,1.316q.045.59.078.973t.032.421a.529.529,0,0,0,.233.5.941.941,0,0,0,.48.136v.208l-.519-.052a5.2,5.2,0,0,0-.519-.026q-.3,0-.577.026l-.577.052V91.17a1.706,1.706,0,0,0,.2-.013.516.516,0,0,0,.207-.071.471.471,0,0,0,.162-.169.6.6,0,0,0,.065-.3q0-.622-.039-1.388t-.091-1.589q-.052-.824-.11-1.68t-.11-1.66h-.026l-2.555,7.081h-.583l-3-7.081h-.026q-.039.778-.071,1.692t-.058,1.777q-.026.863-.045,1.6t-.02,1.167a.707.707,0,0,0,.136.493.682.682,0,0,0,.5.143v.208l-.519-.052a5.188,5.188,0,0,0-.519-.026,4.382,4.382,0,0,0-.473.026l-.473.052Z" transform="translate(-338.314 -83)" fill="#fff"/><path d="M412.925,84.142a.429.429,0,0,0-.233-.447,1.206,1.206,0,0,0-.467-.1V83.39h3.683a3.765,3.765,0,0,1,.953.117,2.3,2.3,0,0,1,.778.357,1.73,1.73,0,0,1,.525.616,1.892,1.892,0,0,1,.195.882,1.678,1.678,0,0,1-1.621,1.777v.026a5.2,5.2,0,0,1,.9.22,2.266,2.266,0,0,1,.7.383,1.577,1.577,0,0,1,.448.6,2.079,2.079,0,0,1,.156.837,2.135,2.135,0,0,1-.259,1.076,2.217,2.217,0,0,1-.707.752,3.209,3.209,0,0,1-1.044.441,5.51,5.51,0,0,1-1.284.143h-3.32V91.4a1.146,1.146,0,0,0,.409-.071q.188-.071.188-.409Zm.843,2.827h1.79a2.145,2.145,0,0,0,1.485-.434,1.469,1.469,0,0,0,.473-1.135,1.445,1.445,0,0,0-.181-.772,1.275,1.275,0,0,0-.48-.454,1.956,1.956,0,0,0-.668-.214,5.492,5.492,0,0,0-.759-.052h-1.66Zm1.128,4.124q.479,0,1.044-.045a3.97,3.97,0,0,0,1.044-.22,2,2,0,0,0,.8-.519,1.349,1.349,0,0,0,.318-.953,1.711,1.711,0,0,0-.227-.921,1.641,1.641,0,0,0-.6-.571,2.673,2.673,0,0,0-.843-.292,5.5,5.5,0,0,0-.966-.084h-1.7v3.605Z" transform="translate(-382.488 -83.312)" fill="#fff"/><path d="M452.64,84.142a.429.429,0,0,0-.233-.447,1.2,1.2,0,0,0-.467-.1V83.39h6.03q0,.428.039.862t.091.875h-.207q-.1-.272-.169-.5a1.354,1.354,0,0,0-.175-.389.692.692,0,0,0-.3-.246,1.451,1.451,0,0,0-.558-.084h-3.2v3.125h2.166a.573.573,0,0,0,.525-.2,1.959,1.959,0,0,0,.2-.655h.259q-.026.311-.052.616t-.026.616a4.63,4.63,0,0,0,.026.5q.026.24.052.5h-.324a1.262,1.262,0,0,0-.129-.648q-.13-.207-.571-.208h-2.127v3.54h3.346a1.61,1.61,0,0,0,.622-.1.975.975,0,0,0,.4-.292,1.312,1.312,0,0,0,.227-.46,4.942,4.942,0,0,0,.13-.61h.286c-.026.1-.052.246-.078.428s-.047.37-.065.564-.029.381-.033.558,0,.322.007.435H451.94V91.4a1.194,1.194,0,0,0,.512-.091q.188-.091.188-.48Z" transform="translate(-414.279 -83.312)" fill="#fff"/><path d="M492.354,84.3a.879.879,0,0,0-.065-.37.572.572,0,0,0-.169-.214.506.506,0,0,0-.227-.1,1.52,1.52,0,0,0-.24-.02V83.39h3.4a4.927,4.927,0,0,1,1.083.11,2.342,2.342,0,0,1,.83.35,1.626,1.626,0,0,1,.532.616,1.98,1.98,0,0,1,.188.895,1.853,1.853,0,0,1-.26.992,2.368,2.368,0,0,1-.667.707,3,3,0,0,1-.921.428,3.827,3.827,0,0,1-1.031.143q.7.8,1.394,1.6t1.342,1.66a1.368,1.368,0,0,0,.571.48,1.534,1.534,0,0,0,.558.117v.208l-.37-.052a2.891,2.891,0,0,0-.4-.026,3.183,3.183,0,0,0-.409.026q-.2.026-.382.052-.221-.311-.564-.759T495.811,90q-.4-.486-.8-.96t-.746-.837q-.441-.467-.59-.635t-.149-.233a.1.1,0,0,1,.117-.117c.069,0,.157,0,.266.013s.231.013.369.013a4.814,4.814,0,0,0,.882-.084,2.849,2.849,0,0,0,.83-.285,1.74,1.74,0,0,0,.616-.545,1.449,1.449,0,0,0,.24-.85,1.38,1.38,0,0,0-.194-.765,1.447,1.447,0,0,0-.525-.48,2.378,2.378,0,0,0-.759-.253,5.363,5.363,0,0,0-.882-.071H493.2v6.847a1.052,1.052,0,0,0,.058.389.534.534,0,0,0,.155.22.463.463,0,0,0,.221.1,1.706,1.706,0,0,0,.266.019v.208l-.493-.052a4.457,4.457,0,0,0-.467-.026q-.3,0-.623.026l-.661.052v-.208a1.543,1.543,0,0,0,.24-.019.5.5,0,0,0,.22-.091.528.528,0,0,0,.162-.214,1.139,1.139,0,0,0,.078-.4Z" transform="translate(-446.07 -83.312)" fill="#fff"/></g></g></g></svg>