<svg xmlns="http://www.w3.org/2000/svg" width="966" height="966" viewBox="0 0 966 966"><g transform="translate(-3761 273)" opacity="0.1"><path d="M16.25,431.25H-1V0H16.25Z" transform="translate(4232.063 -1.312)" fill="#fff"/><path d="M84.8,222.04c75.9,0,125.925-49.335,125.925-128.685,0-77.625-45.2-122.475-123.855-122.475H-13.18v2.07c23.46,0,24.84,15.525,24.84,41.055v164.91c0,25.53-1.38,41.055-24.84,41.055v2.07Zm1.38-5.52c-35.19,0-44.16-6.21-44.16-22.08V-11.18c0-8.28,4.83-12.42,13.11-12.42H84.455c62.79,0,92.115,49.68,92.115,119.025C176.57,169.6,147.935,216.52,86.18,216.52Z" transform="translate(3945.127 143.21)" fill="#fff"/><path d="M203.775-29.12h-80.04v2.07c23.46,0,24.84,15.525,24.84,41.055V88.87H42.66V14.005c0-25.53,1.38-41.055,24.84-41.055v-2.07H-12.54v2.07c23.46,0,24.84,15.525,24.84,41.055v164.91c0,25.53-1.38,41.055-24.84,41.055v2.07H67.5v-2.07c-23.46,0-24.84-15.525-24.84-41.055V95.08H148.575v83.835c0,25.53-1.38,41.055-24.84,41.055v2.07h80.04v-2.07c-23.46,0-24.84-15.525-24.84-41.055V14.005c0-25.53,1.38-41.055,24.84-41.055Z" transform="translate(4338.134 143.21)" fill="#fff"/><path d="M483,25.875A457.253,457.253,0,0,0,305.074,904.213,457.25,457.25,0,0,0,660.926,61.787,454.241,454.241,0,0,0,483,25.875M483,0C749.753,0,966,216.247,966,483S749.753,966,483,966,0,749.753,0,483,216.247,0,483,0Z" transform="translate(3761 -273)" fill="#fff"/><path d="M422.625,8.625A414.112,414.112,0,0,0,261.48,804.094,414.109,414.109,0,0,0,583.77,41.156,411.4,411.4,0,0,0,422.625,8.625m0-8.625C656.034,0,845.25,189.216,845.25,422.625S656.034,845.25,422.625,845.25,0,656.034,0,422.625,189.216,0,422.625,0Z" transform="translate(3821.375 -212.625)" fill="#fff"/></g></svg>