<svg xmlns="http://www.w3.org/2000/svg" width="217.773" height="76.873" viewBox="0 0 217.773 76.873"><g transform="translate(-866.35 -49)"><g transform="translate(936.405 49)"><path d="M.373,34.318H-1V0H.373Z" transform="translate(38.407 21.621)" fill="#fff"/><path d="M-5.383-9.133c6.04,0,10.021-3.926,10.021-10.241,0-6.177-3.6-9.746-9.856-9.746H-13.18v.165c1.867,0,1.977,1.235,1.977,3.267v13.123c0,2.032-.11,3.267-1.977,3.267v.165Zm.11-.439c-2.8,0-3.514-.494-3.514-1.757V-27.692a.914.914,0,0,1,1.043-.988H-5.41c5,0,7.33,3.953,7.33,9.472C1.92-13.306-.359-9.572-5.273-9.572Z" transform="translate(26.784 59.924)" fill="#fff"/><path d="M4.674-29.12H-1.7v.165c1.867,0,1.977,1.235,1.977,3.267v5.958H-8.147v-5.958c0-2.032.11-3.267,1.977-3.267v-.165H-12.54v.165c1.867,0,1.977,1.235,1.977,3.267v13.123c0,2.032-.11,3.267-1.977,3.267v.165h6.369V-9.3c-1.867,0-1.977-1.235-1.977-3.267v-6.672H.281v6.672C.281-10.533.172-9.3-1.7-9.3v.165H4.674V-9.3C2.807-9.3,2.7-10.533,2.7-12.565V-25.688c0-2.032.11-3.267,1.977-3.267Z" transform="translate(57.47 59.924)" fill="#fff"/><path d="M38.437,2.059a36.388,36.388,0,0,0-14.159,69.9A36.387,36.387,0,0,0,52.6,4.917,36.148,36.148,0,0,0,38.437,2.059m0-2.059A38.437,38.437,0,1,1,0,38.437,38.437,38.437,0,0,1,38.437,0Z" transform="translate(0 0)" fill="#fff"/><path d="M33.632.686a32.955,32.955,0,0,0-12.824,63.3A32.954,32.954,0,0,0,46.456,3.275,32.739,32.739,0,0,0,33.632.686m0-.686A33.632,33.632,0,1,1,0,33.632,33.632,33.632,0,0,1,33.632,0Z" transform="translate(4.805 4.805)" fill="#fff"/></g><path d="M-21.97,0c4.4,0,7.3-2.86,7.3-7.46,0-4.5-2.62-7.1-7.18-7.1h-5.8v.12c1.36,0,1.44.9,1.44,2.38V-2.5c0,1.48-.08,2.38-1.44,2.38V0Zm.08-.32c-2.04,0-2.56-.36-2.56-1.28V-13.52a.666.666,0,0,1,.76-.72h1.7c3.64,0,5.34,2.88,5.34,6.9C-16.65-3.04-18.31-.32-21.89-.32Zm16.753-.86a1.063,1.063,0,0,1-.82.46c-.62,0-.66-.68-.66-1.5V-7.5c0-1.88-.94-3.22-2.88-3.22a4.038,4.038,0,0,0-3.8,2.98l.12.06a3.422,3.422,0,0,1,2.94-2.14c2.02,0,2.02,2.18,2.02,2.76v1.54l-1.9.54c-2.42.7-3.52,1.68-3.52,3.12a2.123,2.123,0,0,0,2.32,2.1,4.278,4.278,0,0,0,3.16-1.7c.04.72.26,1.7,1.26,1.7A2.3,2.3,0,0,0-5.017-1.1Zm-5.26.52a1.582,1.582,0,0,1-1.62-1.72c0-1.16.54-1.78,2.38-2.38l1.42-.46v3.56A3.622,3.622,0,0,1-10.4-.66ZM.837-10.72c-1.02,0-1.9.92-2.72,2.18v-2.14h-.08l-2.56.8v.12c.68.18,1.02.6,1.02,1.88v5.8c0,1.28-.06,1.96-.88,1.96V0H-1V-.12c-.82,0-.88-.68-.88-1.96V-8.26a2.011,2.011,0,0,1,1.6-1.06,2.614,2.614,0,0,1,1.38.48h.12l.4-1.72A1.944,1.944,0,0,0,.837-10.72Zm6.793,0c-1.02,0-1.9.92-2.72,2.18v-2.14H4.83l-2.56.8v.12c.68.18,1.02.6,1.02,1.88v5.8c0,1.28-.06,1.96-.88,1.96V0H5.79V-.12c-.82,0-.88-.68-.88-1.96V-8.26a2.011,2.011,0,0,1,1.6-1.06,2.614,2.614,0,0,1,1.38.48h.12l.4-1.72A1.944,1.944,0,0,0,7.63-10.72Zm3.053-1.66A1.118,1.118,0,0,0,11.8-13.5a1.118,1.118,0,0,0-1.12-1.12,1.123,1.123,0,0,0-1.14,1.12A1.123,1.123,0,0,0,10.683-12.38ZM12.583,0V-.12c-.82,0-.88-.68-.88-1.96v-8.6h-.08l-2.56.8v.12c.68.18,1.02.6,1.02,1.88v5.8c0,1.28-.06,1.96-.88,1.96V0Zm9.793-7.6c0-2.02-.98-3.12-2.54-3.12a5.467,5.467,0,0,0-3.66,2v-1.96H16.1l-2.56.8v.12c.68.18,1.02.6,1.02,1.88v5.8c0,1.28-.06,1.96-.88,1.96V0h3.38V-.12c-.82,0-.88-.68-.88-1.96V-8.52a4.583,4.583,0,0,1,2.7-1.12c1.4,0,1.88.96,1.88,2.48v5.08c0,1.28-.06,1.96-.88,1.96V0h3.38V-.12c-.82,0-.88-.68-.88-1.96Z" transform="translate(894 96.241)" fill="#fff"/><path d="M-15.883-14.56h-4.64v.12c1.36,0,1.44.9,1.44,2.38v4.34h-6.14v-4.34c0-1.48.08-2.38,1.44-2.38v-.12h-4.64v.12c1.36,0,1.44.9,1.44,2.38V-2.5c0,1.48-.08,2.38-1.44,2.38V0h4.64V-.12c-1.36,0-1.44-.9-1.44-2.38V-7.36h6.14V-2.5c0,1.48-.08,2.38-1.44,2.38V0h4.64V-.12c-1.36,0-1.44-.9-1.44-2.38v-9.56c0-1.48.08-2.38,1.44-2.38Zm9.593,3.88h-.08l-2.6.28v.12c.68.18,1.06.54,1.06,1.82v6.52a4.68,4.68,0,0,1-2.7,1.1c-1.4,0-1.88-.96-1.88-2.48v-7.36h-.08l-2.6.28v.12c.68.18,1.06.54,1.06,1.82v5.58c0,2.02.98,3.12,2.54,3.12a5.467,5.467,0,0,0,3.66-2l.34,2h.08l2.22-.62V-.5c-.7-.2-1.02-.68-1.02-1.96Zm7.533-.04A4.007,4.007,0,0,0-2.017-8.8v-6.84H-2.1l-2.56.64v.12c.68.18,1.02.6,1.02,1.88V.12h.16l.7-1.16A4.383,4.383,0,0,0,.343.24c2.78,0,4.88-2.26,4.88-5.68C5.223-8.54,3.563-10.72,1.243-10.72ZM.423-.04c-1.54,0-2.44-1.3-2.44-3.08V-8.5A3.269,3.269,0,0,1,.423-9.82c2.06,0,3.06,2.26,3.06,4.9C3.483-2.36,2.463-.04.423-.04ZM14.717-2.46a3.888,3.888,0,0,1-3.14,1.72c-2.24,0-3.36-2.24-3.36-5.08a6.8,6.8,0,0,1,.06-.9h6.54a3.5,3.5,0,0,0-3.58-4c-2.58,0-4.72,2.34-4.72,5.64C6.517-2.1,8.137.24,10.8.24a4.651,4.651,0,0,0,4.04-2.62Zm-3.58-7.98c1.52,0,2.12,1.34,1.96,3.4H8.317C8.617-8.9,9.6-10.44,11.137-10.44Zm9.973-.28c-1.02,0-1.9.92-2.72,2.18v-2.14h-.08l-2.56.8v.12c.68.18,1.02.6,1.02,1.88v5.8c0,1.28-.06,1.96-.88,1.96V0h3.38V-.12c-.82,0-.88-.68-.88-1.96V-8.26a2.011,2.011,0,0,1,1.6-1.06,2.614,2.614,0,0,1,1.38.48h.12l.4-1.72A1.944,1.944,0,0,0,21.11-10.72ZM29-1.7A3.446,3.446,0,0,1,26.8-.66c-1.04,0-1.58-.62-1.58-1.8V-9.74h3.46l.28-.74h-3.74V-13.1H25.1c-.58,1.8-1.28,2.6-2.26,3.02l-.28.12v.22H23.6v7.46c0,1.7.86,2.52,2.34,2.52a4.391,4.391,0,0,0,3.18-1.86Z" transform="translate(1055 96.241)" fill="#fff"/></g></svg>