<svg xmlns="http://www.w3.org/2000/svg" width="508.926" height="508.926" viewBox="0 0 508.926 508.926">
    <g transform="translate(-3761 273)" opacity="0.05">
        <path d="M8.088,227.2H-1V0H8.088Z" transform="translate(4009.648 -129.864)" fill="#602b51"/>
        <path d="M38.44,103.2c39.987,0,66.342-25.992,66.342-67.8,0-40.9-23.81-64.525-65.252-64.525H-13.18v1.091C-.82-28.029-.093-19.85-.093-6.4V80.481c0,13.45-.727,21.629-13.087,21.629V103.2Zm.727-2.908c-18.539,0-23.265-3.272-23.265-11.633V-19.669c0-4.362,2.545-6.543,6.907-6.543h15.45c33.08,0,48.53,26.173,48.53,62.707C86.788,75.573,71.7,100.293,39.167,100.293Z" transform="translate(3864.241 -39.946)" fill="#602b51"/>
        <path d="M101.423-29.12H59.255v1.091c12.36,0,13.087,8.179,13.087,21.629V33.042h-55.8V-6.4c0-13.45.727-21.629,13.087-21.629V-29.12H-12.54v1.091C-.18-28.029.547-19.85.547-6.4V80.481c0,13.45-.727,21.629-13.087,21.629V103.2H29.628V102.11c-12.36,0-13.087-8.179-13.087-21.629V36.313h55.8V80.481c0,13.45-.727,21.629-13.087,21.629V103.2h42.168V102.11c-12.36,0-13.087-8.179-13.087-21.629V-6.4c0-13.45.727-21.629,13.087-21.629Z" transform="translate(4070.99 -39.946)" fill="#602b51"/>
        <path d="M254.463,13.632a240.9,240.9,0,0,0-93.738,462.742A240.9,240.9,0,0,0,348.2,32.552a239.311,239.311,0,0,0-93.738-18.92m0-13.632C395,0,508.926,113.927,508.926,254.463S395,508.926,254.463,508.926,0,395,0,254.463,113.927,0,254.463,0Z" transform="translate(3761 -273)" fill="#602b51"/>
        <path d="M222.655,4.544a218.17,218.17,0,0,0-84.9,419.084A218.169,218.169,0,0,0,307.553,21.682a216.741,216.741,0,0,0-84.9-17.138m0-4.544C345.624,0,445.311,99.686,445.311,222.655S345.624,445.311,222.655,445.311,0,345.624,0,222.655,99.686,0,222.655,0Z" transform="translate(3792.808 -241.192)" fill="#602b51"/>
    </g>
</svg>
